<?xml version="1.0" ?><svg style="enable-background:new 0 0 960 960;" version="1.1" viewBox="0 0 960 960" xml:space="preserve" xmlns="http://www.w3.org/2000/svg" xmlns:xlink="http://www.w3.org/1999/xlink"><style type="text/css">
	.st0{display:none;}
	.st1{display:inline;opacity:0.93;}
	.st2{display:inline;}
	.st3{fill:none;stroke:#000000;stroke-width:15;stroke-linecap:round;stroke-linejoin:round;stroke-miterlimit:10;}
	.st4{display:inline;fill:none;stroke:#000000;stroke-width:15;stroke-linecap:round;stroke-linejoin:round;stroke-miterlimit:10;}
	.st5{fill:#222222;}
	.st6{fill:#DDEDE7;}
	.st7{fill:#1A1D3F;}
	.st8{fill:#ED644E;}
	.st9{fill:#E9B44D;}
	.st10{fill:#3DC5A1;}
	.st11{fill:#494EDF;}
</style><g class="st0" id="guide"/><g class="st0" id="sketch"/><g class="st0" id="stroke"><path class="st4" d="M415.3,564.1c16.9-0.2,28.9-1.2,50.9-0.4c-10.1,22.6-21.2,54.1-34.5,87.8c-3,7.5,6.6,13.4,12,7.5   c38.2-41.9,64.5-72.5,106.6-122.6c4-4.7,0.6-11.9-5.6-11.9c-23.8,0.3-33.3,1.2-57.1-0.1c-1.1-0.1,7.5-47.7,14-82.1   c1.4-7.7-8.7-11.9-13.1-5.3c-22.5,33.5-58.7,87.4-79,115.9C405.9,557.5,409.4,564.1,415.3,564.1z"/><path class="st4" d="M841.9,773c-1.6-25.6-0.9-33.2-2.5-58.8c-183-1-538.2,4-721.2,3.1c1.5,24.7-1,31.5,0.5,56.2   C297.5,776.7,663,769.9,841.9,773z"/><path class="st4" d="M810.3,384.7c-1,109.8-2.1,219.6-3.1,329.5"/><path class="st4" d="M150.6,717.5c-1-109.2-2.1-218.4-3.1-327.6"/><path class="st4" d="M116.4,307.7c242.4-1.5,484.8-2.9,727.2-4.4c-2.7,33.8,1.4,47.3-1.3,81.1c-235.8,2.2-488.1,3.5-723.9,5.7   C116.8,356.3,117.9,341.5,116.4,307.7z"/><path class="st4" d="M174.4,307.4c0.1-4.5,0.1-9.1,0.2-13.8c0.1-4.9,0.3-10.1,3.4-13.9c4.1-4.9,11.5-5.1,17.9-5   c1.5,0,3,0.1,4.5,0.1c24.7,0.5,50.9-0.4,75.5,0.2c0.7,0,1.3,0,2,0.1c7.3,0.2,15.7,1,19.9,7c2.6,3.7,2.9,8.4,3.1,12.9   c0.2,3.9,0.3,7.7,0.3,11.5"/><path class="st4" d="M650.6,304.5c-0.1-4.2-0.3-8.4-0.4-12.7c-0.2-5.1-0.2-10.7,3-14.7c3.8-4.9,10.8-5.5,17-5.7c0.3,0,0.6,0,0.9,0   c25-0.3,50-0.6,75-1c3.7,0,7.4-0.1,11.1-0.1c4.2-0.1,9,0.1,11.9,3.1c2.5,2.6,2.9,6.5,3.2,10.1c0.5,6.7,1,13.4,1.5,20.1"/><path class="st4" d="M200.4,274.9c0-19.9,0-40.4,0.1-60.2c30.9-3,52.6-3.9,74.7-2c0.3,20.7,0.5,41.6,0.7,62.3"/><path class="st4" d="M670.2,271.5c-1-21.1-0.8-42.1-2.6-63.2c26.5-3.5,50.3-3.8,76.8,0c-0.3,20,1.1,41.5,1.7,62.2"/></g><g id="outline"><path class="st5" d="M415.2,571.6c0.1,0,0.1,0,0.2,0c5.4-0.1,10.3-0.2,15-0.3c7.8-0.2,15.2-0.4,24.5-0.3   c-5.1,12.3-10.6,26.6-16.2,41.4c-4.4,11.7-9,23.8-14,36.3c-2.7,6.7-0.2,14.1,5.9,17.9c2.5,1.5,5.2,2.3,7.9,2.3   c4,0,7.9-1.7,10.8-4.8c38.3-41.9,64.9-73,106.8-122.9c3.7-4.5,4.5-10.5,2-15.8c-2.5-5.2-7.5-8.4-13.3-8.4c-0.1,0-0.1,0-0.2,0   c-6.3,0.1-11.7,0.2-16.4,0.3c-11.2,0.3-19.7,0.4-32.4,0c1.3-8.8,4.7-28.6,13.1-73.7c1.3-6.9-2.4-13.7-8.9-16.3   c-6.5-2.7-13.8-0.4-17.8,5.4c-20.6,30.8-58.3,86.7-78.9,115.7c-3.2,4.5-3.6,10.4-1.1,15.3C404.8,568.6,409.7,571.6,415.2,571.6z    M493.9,442.2c-4,21.3-7.2,38.8-9.5,52.1c-1.5,8.7-2.7,15.6-3.4,20.4c-1.3,8.7-1.7,11.3,0.6,14.3c1.3,1.7,3.4,2.8,5.5,2.9   c17.9,1,27.8,0.7,41.4,0.4c4.5-0.1,9.7-0.2,15.6-0.3c-41.1,48.9-67.5,79.7-104.9,120.8c4.8-12.1,9.2-23.7,13.5-35   c7.2-19,14.1-37,20.3-50.9c1-2.3,0.8-4.9-0.5-7c-1.3-2.1-3.6-3.4-6.1-3.5c-6-0.2-11.3-0.3-16.2-0.3c-7.5,0-14,0.2-20.3,0.4   c-4.5,0.1-9.2,0.3-14.2,0.3C436.3,527.7,473.1,473.2,493.9,442.2z M849.1,298.2c-1.4-1.5-3.4-2.4-5.5-2.4c0,0,0,0,0,0l-62.6,0.4   l-1-13.2c-0.3-3.8-0.8-10.1-5.3-14.8c-5.4-5.6-13.2-5.5-17.4-5.4c-1.3,0-2.5,0-3.8,0c-0.2-4.6-0.3-9.1-0.5-13.6   c-0.6-13.7-1.1-27.8-0.9-40.9c0.1-3.8-2.7-7-6.5-7.5c-26.4-3.7-50.7-3.7-78.8,0c-4,0.5-6.8,4.1-6.5,8.1c1.1,12.8,1.4,25.9,1.7,38.6   c0.1,5.6,0.3,11.3,0.5,17c-5.1,0.8-11,2.8-15.1,8c-5,6.3-4.7,14.3-4.6,19.6c0.1,1.7,0.1,3.3,0.2,5l-334.3,2c0-1.5-0.1-2.9-0.2-4.3   c-0.2-4.8-0.5-11.3-4.4-16.9c-5.2-7.4-14-9.3-20.6-9.9c-0.1-6.2-0.1-12.4-0.2-18.7c-0.1-12-0.2-24.4-0.4-36.6c-0.1-3.8-3-7-6.8-7.4   c-21.3-1.9-42.6-1.3-76.1,2c-3.8,0.4-6.8,3.6-6.8,7.5l-0.1,52.5c-6.2,0-15,0.9-20.7,7.7c-5,6-5.1,13.6-5.1,18.6   c0,2.2-0.1,4.3-0.1,6.4l-50.6,0.3c-2,0-4,0.9-5.4,2.3c-1.4,1.5-2.1,3.5-2.1,5.5c0.8,16.8,0.9,29,1,40.9c0.1,12,0.2,24.4,1,41.5   c0.2,4,3.5,7.2,7.5,7.2c0,0,0,0,0.1,0c7.2-0.1,14.4-0.1,21.7-0.2l2.9,312.5c-8.6,0-16.9-0.1-24.9-0.1c0,0,0,0,0,0   c-2.1,0-4,0.8-5.4,2.3c-1.4,1.5-2.2,3.5-2,5.6c0.7,12,0.5,19.5,0.2,27.4c-0.3,7.9-0.5,16.1,0.3,28.8c0.2,3.9,3.4,7,7.4,7   c35,0.6,77.6,0.9,124.4,0.9c72.8,0,156-0.6,237.4-1.1c133.8-0.9,272.1-1.8,361.5-0.3c0,0,0.1,0,0.1,0c2,0,4-0.8,5.4-2.3   c1.4-1.5,2.2-3.6,2.1-5.7c-0.8-12.6-1-21-1.3-29.1c-0.2-8.2-0.5-16.7-1.3-29.7c-0.3-3.9-3.5-7-7.4-7c-7.9,0-16.1-0.1-24.6-0.1   l0.2-17.7c0.9-99,1.9-197.9,2.8-296.9c8.2-0.1,16.4-0.1,24.6-0.2c3.9,0,7.1-3,7.4-6.9c1.4-17.3,1-29.5,0.7-41.4   c-0.4-12-0.7-23.2,0.6-39.7C851.2,301.8,850.5,299.8,849.1,298.2z M736.9,214.9c0,11.5,0.5,23.4,1,35c0.2,4.3,0.4,8.8,0.5,13.2   c-20.3,0.3-40.6,0.5-61,0.8c-0.2-5.6-0.4-11.2-0.5-16.7c-0.3-10.6-0.6-21.4-1.3-32.3C697.2,212.5,716.6,212.5,736.9,214.9z    M659.1,281.8c1.8-2.3,6.7-2.7,11.3-2.8l4.2-0.1c23.9-0.3,47.7-0.6,71.6-0.9c3.7,0,7.4-0.1,11.2-0.1c3.7,0,5.9,0.2,6.5,0.9   c0.8,0.8,1,4.1,1.1,5.5l0.9,12.1l-108,0.6c-0.1-1.8-0.1-3.6-0.2-5.4C657.6,288.5,657.5,283.8,659.1,281.8z M208,221.5   c25.3-2.3,43.1-2.9,59.8-1.8c0.1,9.9,0.2,19.9,0.3,29.7c0.1,6,0.1,12,0.2,18.1c-10.4-0.1-21-0.1-31.4,0c-9.6,0.1-19.4,0.1-29,0   L208,221.5z M182.1,293.7c0-2.9,0.1-7.3,1.7-9.2c1.9-2.3,7.1-2.4,12-2.3c1.5,0,3,0.1,4.5,0.1c12.1,0.3,24.6,0.2,36.8,0.1   c12.8-0.1,26.1-0.2,38.8,0.1c0.6,0,1.3,0,1.9,0c5.7,0.2,11.9,0.8,14,3.8c1.4,2,1.6,5.8,1.7,8.9c0.1,1.2,0.1,2.4,0.1,3.7L182,299.8   C182,297.8,182.1,295.8,182.1,293.7z M832.3,721.8c0.5,8.9,0.7,15.6,0.8,22.1c0.2,6.4,0.4,12.9,0.8,21.5   c-89.7-1.4-223.8-0.5-353.7,0.4c-130.3,0.9-265,1.8-354.5,0.4c-0.3-8.2-0.1-14.2,0.1-20.5c0.2-6.1,0.4-12.4,0.1-20.8   c91.4,0.4,224.2-0.6,352.8-1.6c117.5-0.9,238.6-1.8,328.3-1.6c0,0,0,0,0,0c0,0,0,0,0.1,0c0,0,0,0,0,0   C815.9,721.7,824.2,721.7,832.3,721.8z M155.1,397.3c106.8-0.9,217.7-1.7,325.3-2.5c106.6-0.8,216.5-1.5,322.4-2.5   c-0.9,98.9-1.9,197.7-2.8,296.6l-0.2,17.8c-89-0.1-206.7,0.8-321.1,1.6c-114.2,0.9-231.8,1.7-320.7,1.6L155.1,397.3z M835.3,377   c-8.3,0.1-16.5,0.2-24.8,0.2c0,0,0,0,0,0c0,0,0,0-0.1,0c0,0,0,0-0.1,0c-108.2,1-220.8,1.8-330,2.5c-117.5,0.8-239,1.7-354.7,2.8   c-0.5-13.2-0.6-23.6-0.7-33.7c-0.1-10.1-0.2-20.5-0.7-33.7l50.1-0.3c0,0,0,0,0,0c0,0,0.1,0,0.1,0c0,0,0,0,0.1,0l126.9-0.8   c0,0,0.1,0,0.1,0c0,0,0,0,0.1,0l534.1-3.2c-0.7,13.2-0.4,23.3-0.1,33.2C835.7,354.3,836,364.1,835.3,377z"/></g><g class="st0" id="flat"><g class="st2"><path class="st6" d="M150.6,727.5l656.6-3.3c1-109.8,2.1-234.6,3.1-344.5l-662.8,5.1C148.5,494,149.6,618.2,150.6,727.5z"/><path class="st11" d="M558.7,468.5c-74.2-65.6-205.4-15.7-197.8,88.8c2.9,39.4,27.9,76.1,62.8,94.7c28.4,15.1,63.1,18.5,93.7,8.5    c30.6-10,56.8-33.2,69.8-62.7C606.1,554.6,594,499.7,558.7,468.5z"/><path class="st9" d="M555,525.8c-27.6,0.4-38.4,1.4-66-0.1c-1.3-0.1,8.7-55.2,16.1-94.9c1.7-8.9-10.1-13.7-15.1-6.2    c-26,38.7-67.9,101-91.4,133.9c-4,5.6,0.1,13.2,6.9,13.2c19.5-0.2,33.4-1.4,58.8-0.5c-11.7,26.1-24.5,62.5-39.9,101.4    c-3.4,8.6,7.7,15.5,13.9,8.7c44.2-48.4,74.5-83.8,123.2-141.8C566.1,534.1,562.1,525.7,555,525.8z"/><path class="st8" d="M118.6,773.6c178.9,3.2,544.4-3.7,723.3-0.5c-1.6-25.6-0.9-33.2-2.5-58.8c-183-1-538.2,4-721.2,3.1    C119.6,742.1,117.1,748.8,118.6,773.6z"/><path class="st8" d="M116.4,307.7c1.5,33.8,0.4,48.6,1.9,82.4c235.8-2.2,488.1-3.5,723.9-5.7c3.7-39.1,0.1-56.2,1.3-81.1    C601.2,304.8,358.8,306.2,116.4,307.7z"/><path class="st11" d="M297.9,282.1c-4.2-6-12.6-6.8-19.9-7c-0.7,0-1.3,0-2-0.1c-24.6-0.6-50.8,0.3-75.5-0.2c-1.5,0-3-0.1-4.5-0.1    c-6.4-0.2-13.8,0-17.9,5c-3.1,3.7-3.3,9-3.4,13.9c-0.1,4.7-0.1,9.3-0.2,13.8l126.9-0.8c-0.1-3.8-0.2-7.7-0.3-11.5    C300.7,290.6,300.4,285.8,297.9,282.1z"/><path class="st11" d="M769.2,273.5c-3-3-7.7-3.2-11.9-3.1c-3.7,0-7.4,0.1-11.1,0.1c-25,0.3-50,0.6-75,1c-0.3,0-0.6,0-0.9,0    c-6.3,0.1-13.2,0.8-17,5.7c-3.1,4-3.1,9.6-3,14.7c0.1,4.2,0.3,8.4,0.4,12.7l123.3-0.7c-0.5-6.7-1-13.4-1.5-20.1    C772.1,280,771.7,276.1,769.2,273.5z"/><path class="st7" d="M275.9,205.3c-21.3-1.9-42.6-1.3-76.1,2c-3.8,0.4-6.8,3.6-6.8,7.5l-0.1,60.2c0,4.1,3.4,7.5,7.5,7.5    c0,0,0,0,0,0c4.1,0,7.5-3.4,7.5-7.5l0.1-53.3c25.3-2.3,43.1-2.9,59.8-1.8c0.1,9.9,0.2,19.9,0.3,29.7c0.1,8.6,0.2,17.2,0.3,25.8    c0.1,4.1,3.4,7.4,7.5,7.4c0,0,0.1,0,0.1,0c4.1-0.1,7.5-3.5,7.4-7.6c-0.1-8.6-0.2-17.2-0.3-25.8c-0.1-12-0.2-24.4-0.4-36.6    C282.7,208.8,279.7,205.6,275.9,205.3z"/><path class="st7" d="M736.9,214.9c0,11.5,0.5,23.4,1,35c0.3,6.9,0.6,13.9,0.8,20.8c0.1,4.1,3.6,7.4,7.7,7.3    c4.1-0.1,7.4-3.6,7.3-7.7c-0.2-7-0.5-14.1-0.8-21c-0.6-13.7-1.1-27.8-0.9-40.9c0.1-3.8-2.7-7-6.5-7.5c-26.4-3.7-50.7-3.7-78.8,0    c-4,0.5-6.8,4.1-6.5,8.1c1.1,12.8,1.4,25.9,1.7,38.6c0.2,7.9,0.4,16.2,0.8,24.3c0.2,4,3.5,7.1,7.5,7.1c0.1,0,0.2,0,0.4,0    c4.1-0.2,7.3-3.7,7.1-7.9c-0.4-8-0.6-16.1-0.8-24c-0.3-10.6-0.6-21.4-1.3-32.3C697.2,212.5,716.6,212.5,736.9,214.9z"/><path class="st7" d="M843.6,295.8C843.6,295.8,843.6,295.8,843.6,295.8l-265.7,1.6c-4.1,0-7.5,3.4-7.5,7.5c0,4.1,3.4,7.5,7.5,7.5    c0,0,0,0,0,0l259-1.6c0.4,6.2,0.5,17-0.2,35.6c-0.2,4.1,3.1,7.6,7.2,7.8c0.1,0,0.2,0,0.3,0c4,0,7.3-3.2,7.5-7.2    c0.9-23.3,0.6-38.1-0.8-45.2C850.2,298.3,847.2,295.8,843.6,295.8z"/><path class="st7" d="M384.5,306.1c0-4.1-3.4-7.5-7.5-7.5c0,0,0,0,0,0c-43.4,0.3-72.4,0.5-100.3,0.8c-28,0.3-56.9,0.5-100.3,0.8    c-4.1,0-7.5,3.4-7.5,7.5c0,4.1,3.4,7.5,7.5,7.5c0,0,0,0,0,0c43.4-0.3,72.4-0.5,100.3-0.8c28-0.3,56.9-0.5,100.3-0.8    C381.2,313.6,384.5,310.2,384.5,306.1z"/><path class="st7" d="M810.4,377.2C810.4,377.2,810.3,377.2,810.4,377.2c-4.2,0-7.5,3.3-7.6,7.4c-1,101.4-1.9,202.8-2.9,304.2    l-0.2,25.2c0,4.1,3.3,7.5,7.4,7.6c0,0,0,0,0.1,0c4.1,0,7.5-3.3,7.5-7.4l0.2-25.2c1-101.4,1.9-202.8,2.9-304.2    C817.9,380.7,814.5,377.3,810.4,377.2z"/><path class="st7" d="M147.4,382.3c-4.1,0-7.5,3.4-7.4,7.6l3.1,327.6c0,4.1,3.4,7.4,7.5,7.4c0,0,0,0,0.1,0c4.1,0,7.5-3.4,7.4-7.6    L155,389.8C155,385.6,151.6,382.3,147.4,382.3z"/></g></g><g class="st0" id="colored_x5F_line"><g class="st2"><path class="st9" d="M118.1,717.3c1.5,24.7-1,31.5,0.5,56.2c178.9,3.2,544.4-3.7,723.3-0.5c-1.6-25.6-0.9-33.2-2.5-58.8    C656.3,713.3,301.1,718.3,118.1,717.3z"/><path class="st9" d="M843.6,303.3c-23.2,0.1-46.5,0.3-69.7,0.4c-0.5-6.5-1-13.8-1.5-20.1c-0.3-3.6-0.7-7.5-3.2-10.1    c-3-3-7.7-3.2-11.9-3.1c-3.7,0-7.4,0.1-11.1,0.1c-25,0.3-50,0.6-75,1c-0.3,0-0.6,0-0.9,0c-6.3,0.1-13.2,0.8-17,5.7    c-3.1,4-3.1,9.6-3,14.7c0.1,3.9,0.2,8.6,0.4,12.7c-116.5,0.7-233,1.4-349.5,2.1c-0.1-4.7-0.1-9.5-0.2-11.5    c-0.2-4.5-0.5-9.3-3.1-12.9c-4.2-6-12.6-6.8-19.9-7c-0.7,0-1.3,0-2-0.1c-24.6-0.6-50.8,0.3-75.5-0.2c-1.5,0-3-0.1-4.5-0.1    c-6.4-0.2-13.8,0-17.9,5c-3.1,3.7-3.3,9-3.4,13.9c0,2.6-0.1,8.4-0.1,13.7c-19.4,0.1-38.7,0.2-58.1,0.3c1.5,33.8,0.4,48.6,1.9,82.4    c235.8-2.2,488.1-3.5,723.9-5.7C845.9,345.3,842.4,328.2,843.6,303.3z"/><path class="st5" d="M563.6,462.9c-19.8-17.5-44.5-28.2-71.4-30.8c-24.9-2.4-51,2.4-73.4,13.5c-44.5,22-69,64-65.5,112.2    c3,41.3,29.2,80.8,66.7,100.8c18.8,10,39.8,15.1,60.7,15.1c13.1,0,26.3-2,38.9-6.1c32.8-10.7,60.6-35.7,74.3-66.8    C614.3,554.4,601.6,496.4,563.6,462.9z M580.2,594.7c-12,27.3-36.4,49.2-65.2,58.6c-28.3,9.2-61.1,6.2-87.9-8    c-33.1-17.6-56.2-52.4-58.8-88.6c-3-42,18.3-78.5,57.2-97.7c16.6-8.2,35.4-12.5,54-12.5c3.8,0,7.6,0.2,11.3,0.5    c23.7,2.3,45.5,11.7,62.9,27.1c15.9,14.1,27.4,34,32.2,56.2C590.8,552.4,588.8,575.3,580.2,594.7z"/><path class="st5" d="M275.9,205.3c-21.3-1.9-42.6-1.3-76.1,2c-3.8,0.4-6.8,3.6-6.8,7.5l-0.1,60.2c0,4.1,3.4,7.5,7.5,7.5    c0,0,0,0,0,0c4.1,0,7.5-3.4,7.5-7.5l0.1-53.3c25.3-2.3,43.1-2.9,59.8-1.8c0.1,9.9,0.2,19.9,0.3,29.7c0.1,8.6,0.2,17.2,0.3,25.8    c0.1,4.1,3.4,7.4,7.5,7.4c0,0,0.1,0,0.1,0c4.1-0.1,7.5-3.5,7.4-7.6c-0.1-8.6-0.2-17.2-0.3-25.8c-0.1-12-0.2-24.4-0.4-36.6    C282.7,208.8,279.7,205.6,275.9,205.3z"/><path class="st5" d="M745.5,200.9c-26.4-3.7-50.7-3.7-78.8,0c-4,0.5-6.8,4.1-6.5,8.1c1.1,12.8,1.4,25.9,1.7,38.6    c0.2,7.9,0.4,16.2,0.8,24.3c0.2,4,3.5,7.1,7.5,7.1c0.1,0,0.2,0,0.4,0c4.1-0.2,7.3-3.7,7.1-7.9c-0.4-8-0.6-16.1-0.8-24    c-0.3-10.6-0.6-21.4-1.3-32.3c21.5-2.4,40.9-2.4,61.2,0c0,11.5,0.5,23.4,1,35c0.3,6.9,0.6,13.9,0.8,20.8c0.1,4.1,3.6,7.4,7.7,7.3    c4.1-0.1,7.4-3.6,7.3-7.7c-0.2-7-0.5-14.1-0.8-21c-0.6-13.7-1.1-27.8-0.9-40.9C752,204.6,749.2,201.4,745.5,200.9z"/><path class="st5" d="M844,354.2c0.1,0,0.2,0,0.3,0c4,0,7.3-3.2,7.5-7.2c0.9-23.3,0.6-38.1-0.8-45.2c-0.7-3.5-3.8-6-7.3-6    c0,0,0,0,0,0l-265.7,1.6c-4.1,0-7.5,3.4-7.5,7.5c0,4.1,3.4,7.5,7.5,7.5c0,0,0,0,0,0l259-1.6c0.4,6.2,0.5,17-0.2,35.6    C836.6,350.6,839.8,354.1,844,354.2z"/><path class="st5" d="M176.4,315.2C176.4,315.2,176.4,315.2,176.4,315.2c43.5-0.3,72.4-0.5,100.4-0.8c28-0.3,56.9-0.5,100.3-0.8    c4.1,0,7.5-3.4,7.5-7.5c0-4.1-3.4-7.5-7.5-7.5c0,0,0,0,0,0c-43.4,0.3-72.4,0.5-100.3,0.8c-28,0.3-56.9,0.5-100.3,0.8    c-4.1,0-7.5,3.4-7.5,7.5C168.9,311.9,172.3,315.2,176.4,315.2z"/><path class="st5" d="M810.3,377.2c-4.1,0-7.5,3.3-7.5,7.4c-1,101.4-1.9,202.8-2.9,304.2l-0.2,25.2c0,4.1,3.3,7.5,7.4,7.6    c0,0,0,0,0.1,0c4.1,0,7.5-3.3,7.5-7.4l0.2-25.2c1-101.4,1.9-202.8,2.9-304.2C817.9,380.7,814.5,377.3,810.3,377.2    C810.4,377.2,810.3,377.2,810.3,377.2z"/><path class="st5" d="M140,389.9l3.1,327.6c0,4.1,3.4,7.4,7.5,7.4c0,0,0,0,0.1,0c4.1,0,7.5-3.4,7.4-7.6L155,389.8    c0-4.1-3.4-7.4-7.6-7.4C143.3,382.4,140,385.8,140,389.9z"/><path class="st9" d="M490,424.6c-26,38.7-67.9,101-91.4,133.9c-4,5.6,0.1,13.2,6.9,13.2c19.5-0.2,33.4-1.4,58.8-0.5    c-11.7,26.1-24.5,62.5-39.9,101.4c-3.4,8.6,7.7,15.5,13.9,8.7c44.2-48.4,74.5-83.8,123.2-141.8c4.6-5.5,0.6-13.8-6.5-13.7    c-27.6,0.4-38.4,1.4-66-0.1c-1.3-0.1,8.7-55.2,16.1-94.9C506.8,421.8,495,417,490,424.6z"/></g></g></svg>