<?xml version="1.0" ?><svg data-name="Layer 1" id="Layer_1" viewBox="0 0 256 256" xmlns="http://www.w3.org/2000/svg"><defs><style>.cls-1{fill:none;}.cls-1,.cls-2{stroke:#424242;stroke-linecap:round;stroke-linejoin:round;stroke-width:6px;}.cls-2{fill:#010200;}</style></defs><title/><path class="cls-1" d="M20.72,80.21H235.28a0,0,0,0,1,0,0V207.06a8.9,8.9,0,0,1-8.9,8.9H29.62a8.9,8.9,0,0,1-8.9-8.9V80.21A0,0,0,0,1,20.72,80.21Z"/><path class="cls-1" d="M163.59,53.26H18.43a8.9,8.9,0,0,0-8.9,8.9v9.15a8.9,8.9,0,0,0,8.9,8.9H237.57a8.9,8.9,0,0,0,8.9-8.9V62.16a8.9,8.9,0,0,0-8.9-8.9Z"/><rect class="cls-1" height="13.22" width="18.81" x="51.73" y="40.04"/><rect class="cls-1" height="13.22" width="18.81" x="51.73" y="40.04"/><rect class="cls-1" height="13.22" width="18.81" x="185.45" y="40.04"/><rect class="cls-1" height="13.22" width="18.81" x="185.45" y="40.04"/><line class="cls-2" x1="48.18" x2="204.27" y1="179.32" y2="179.32"/></svg>