<?xml version="1.0" ?><svg style="enable-background:new 0 0 960 960;" version="1.1" viewBox="0 0 960 960" xml:space="preserve" xmlns="http://www.w3.org/2000/svg" xmlns:xlink="http://www.w3.org/1999/xlink"><style type="text/css">
	.st0{display:none;}
	.st1{display:inline;opacity:0.93;}
	.st2{display:inline;}
	.st3{fill:none;stroke:#000000;stroke-width:15;stroke-linecap:round;stroke-linejoin:round;stroke-miterlimit:10;}
	.st4{display:inline;fill:none;stroke:#000000;stroke-width:15;stroke-linecap:round;stroke-linejoin:round;stroke-miterlimit:10;}
	.st5{fill:#222222;}
	.st6{fill:#DDEDE7;}
	.st7{fill:#1A1D3F;}
	.st8{fill:#ED644E;}
	.st9{fill:#E9B44D;}
	.st10{fill:#3DC5A1;}
	.st11{fill:#494EDF;}
</style><g class="st0" id="guide"/><g class="st0" id="sketch"/><g class="st0" id="stroke"><g class="st2"><path class="st3" d="M483.8,600.5c-11,18.4-9.4,43.2,2.8,60.9c12.3,17.6,34.2,27.6,55.7,26.5c20.4-1.1,40.3-12.2,51-29.6    c10.6-17.5,11.2-40.9,0.5-58.3C572.4,565.5,504.7,565.4,483.8,600.5z"/><path class="st3" d="M702.1,605.3c-10.2,25.8,0,57.9,22.7,73.9s55.5,15.4,78.2-0.6c20.7-14.6,29.8-42.1,23.3-66.6    C811.8,557.8,722.6,553.5,702.1,605.3z"/><path class="st3" d="M518.5,621.8c-3.3,8.7-0.9,19.2,6,25.5c6.8,6.3,17.6,7.9,25.9,3.9c8.4-4,13.9-13.4,13.2-22.6    c-0.4-5.8-3.1-11.5-7.6-15.2C543.8,603.3,524.5,606.3,518.5,621.8z"/><path class="st3" d="M748.8,606.6c-6.9,4.9-10.9,13.5-10.5,22c0.4,6.9,3.6,13.6,8.8,18.1s12.4,6.8,19.2,5.9    c10-1.3,18.8-9.6,20.6-19.5C790.9,612.2,767.2,593.7,748.8,606.6z"/><path class="st3" d="M698.2,629.3c-32.2,0.3-64.5,0.5-96.7,0.8"/><path class="st3" d="M476.4,631.6c-26.2,0.4-52.3,1-78.2,1.6c-6.1,0.2-11.3-4.2-12.2-10.2c-4-25.8-7.3-67.8,14.5-102.3    c25.1-39.8,59.1-58.8,112.7-59.2c74.6-1.1,196.1-2.4,270.7-3.5c66.4,0,84.9,13.4,108.7,40.1c23.5,26.4,28.4,74.5,24.9,116.7    c-0.5,6.3-5.7,11.3-12.1,11.4c-18.4,0.4-55.5,1.3-77.2,1.6"/><path class="st3" d="M885.4,490.5c-7.9,3.3-15,9.4-17.3,17.5c-2.7,9.4,1.7,19.9,9.2,26.3c7.5,6.3,17.6,8.9,27.4,9.1    c3,0,6-0.1,9-0.4"/><path class="st3" d="M664.3,497c6.4-0.3,12.7-0.6,19.1-0.9"/><path class="st3" d="M541.4,499.4c7.4-0.5,14.8-1,22.2-1.5"/><path class="st3" d="M391.9,537.7c5.3,1,10.3,3.4,13.7,7.7c5.1,6.4,5.3,15.2,5.4,23.4c0,6.1,0,12.1,0.1,18.2    c0,5.1,0,10.4-2.3,14.9c-3,5.8-9.4,9.3-15.8,10.5c-2.7,0.5-5.4,0.6-8.2,0.5"/><path class="st3" d="M502.2,461.8c-1.6-19.1-1.7-38.1,0.2-57.1c1.9-19,8.9-38.1,20.4-53.4c6.7-8.9,15.3-15.9,24.6-22    C603,293,720.3,300,757.9,340.5c12.8,13.8,18.4,30.3,21.8,49c4,21.7,5.1,46.4,4.2,68.4"/></g><path class="st4" d="M638.5,305.8c1.1,51.3,1.1,102.7,1.9,154"/><path class="st4" d="M300.7,687c0-31.4,1-43.2-16.8-52.6c-11.2-5.9-24.4-5.8-37-5.5c-45.3,0.9-90.5-0.1-135.8,0.8   c-19,0.4-39.3,1.2-54.8,12.2c-15.5,11-15.4,26.6-14.6,47C124.2,689.4,218.2,686.4,300.7,687z"/><path class="st4" d="M75.5,633.3c0.8-91.4,1.5-182.9,2.3-274.3c0.2-20.8,0.8-43.1,12.9-60c18.2-25.4,54-28.7,85.2-29.7   c28.8-0.9,62,0.2,79.8,22.8c13,16.5,13.3,39.3,13,60.3c-1.3,92.3-2.7,184.5-4,276.8"/><path class="st4" d="M122,383.4c0.5-23.2,2-48.7,18.1-65.4c9.4-9.7,23.2-15,36.7-14.2s26.5,8,34.5,18.8c10,13.6,12,31.3,13.2,48.2   c3.1,43.4,3.4,87,1,130.5c-1.2,22.3-4.3,46.8-20.9,61.6c-17.1,15.1-45,14.2-63.1,0.3c-22.5-17.3-23.2-45.2-22.7-71.6   C119.6,447.2,121.2,419.3,122,383.4z"/><path class="st4" d="M146.4,448.3c7.6-0.1,12.9-0.5,22.8-0.2c-4.5,10.1-9.5,24.2-15.5,39.3c-1.3,3.3,3,6,5.4,3.4   c17.1-18.8,28.9-32.5,47.8-55c1.8-2.1,0.2-5.3-2.5-5.3c-10.7,0.1-14.9,0.5-25.6-0.1c-0.5,0,3.4-21.4,6.3-36.8   c0.6-3.5-3.9-5.3-5.9-2.4c-10.1,15-26.3,39.1-35.4,51.9C142.2,445.4,143.8,448.4,146.4,448.3z"/><path class="st4" d="M268.2,382.4c13.8-0.6,21.7,4.2,26.9,13.6c6.1,10.9,4.5,28.7,4.6,41.2c0.6,59-0.4,62.3,1.4,111.5   c0.3,8.6,1.7,17.3,5.7,24.9c4,7.6,10.8,12.9,19.4,12.5c9.3-0.4,17.8-8.4,20.8-17.3c3-8.8,2.5-17.5,2.4-26.8   c-0.1-9.3,0.3-19.1,4.9-27.2c5.1-9.1,15.4-15.1,25.9-15c9.9,0.1,19.6,5.6,24.8,14.1"/></g><g id="outline"><path class="st5" d="M560.9,607.7c-8.2-6.8-19.1-9.3-29.2-6.6c-9.3,2.4-16.7,9-20.1,18.1c-4.4,11.5-1.2,25.4,7.9,33.7   c5.7,5.3,13.4,8.1,21.2,8.1c4.5,0,9-0.9,13.1-2.9c11.1-5.3,18.3-17.6,17.5-29.9C570.6,620.1,566.9,612.6,560.9,607.7z M547.2,644.5   c-5.6,2.7-13,1.6-17.6-2.7c-4.6-4.2-6.3-11.5-4-17.3c1.7-4.5,5.3-7.7,9.9-8.9c1.4-0.4,2.9-0.6,4.3-0.6c4.1,0,8.2,1.5,11.5,4.2   c2.8,2.3,4.6,6,4.9,9.9C556.6,635.4,552.8,641.8,547.2,644.5z M778.9,599.9c-10.9-7-24.1-6.8-34.4,0.5c0,0,0,0,0,0   c-9,6.3-14.2,17.3-13.6,28.5c0.5,9,4.6,17.6,11.4,23.4c5.8,5.1,13.6,7.9,21.2,7.9c1.3,0,2.6-0.1,3.9-0.2   c13.2-1.7,24.6-12.5,27-25.6C796.8,621.3,790.6,607.4,778.9,599.9z M779.6,631.7c-1.2,6.8-7.3,12.6-14.2,13.4   c-4.7,0.6-9.7-0.9-13.4-4.1c-3.6-3.2-6-8-6.2-12.9c-0.3-6,2.5-12.1,7.3-15.5l0,0c7.7-5.4,14.9-1.9,17.7-0.2   C776.3,616.1,781.2,623.4,779.6,631.7z M921.1,541.6c0-0.2-0.1-0.4-0.1-0.5c-4.6-20.2-12.2-36.3-22.7-48.1   c-22.7-25.5-41.7-41.4-106.6-42.5c0.4-22.1-1.2-44-4.5-62.4c-2.9-15.8-8.2-36-23.7-52.7C722.9,291.8,601.6,285,543.3,323   c-11.6,7.6-20,15.1-26.5,23.8c-12,16-19.8,36.3-21.9,57.2c-1.6,16.5-1.9,33.2-0.7,51c-38.6,3.8-67.1,18.7-89.5,46.9   c-6.7-5.9-15.4-9.5-24.3-9.6c-0.1,0-0.2,0-0.3,0c-13.1,0-25.7,7.4-32.2,18.8c-5.4,9.5-6,20.5-5.9,31c0,1,0,1.9,0,2.8   c0.1,7.9,0.2,14.8-2.1,21.5c-2.3,6.6-8.4,12-14,12.2c-6.7,0.3-10.7-5.2-12.4-8.5c-2.9-5.6-4.5-12.7-4.9-21.7   c-1.2-31.3-1.2-43.8-1.2-64.4c0-11.4,0-25.6-0.3-46.9c0-2.1,0-4.5,0-7c0.2-12.1,0.4-27.1-5.6-37.8c-5.7-10.2-14.2-15.9-25.8-17.2   l0.3-22.7c0.4-24.1-0.5-47.2-14.6-65.1c-19.2-24.3-52.6-26.7-86-25.6c-35.9,1.1-71.8,5.9-91,32.8c-13.9,19.5-14.2,45.4-14.3,64.3   L68,627.7c-5.6,1.9-11,4.5-16.1,8.1c-19.3,13.7-18.5,33.9-17.8,53.4c0.2,4,3.4,7.2,7.4,7.2c7,0,14.1,0.1,21.3,0.1   c35.2,0,72.3-0.5,108.3-1c43.3-0.6,88.2-1.2,129.3-0.9c2,0,3.9-0.8,5.3-2.2c1.4-1.4,2.2-3.3,2.2-5.3l0-5c0-27.9,0-43.3-20.8-54.3   c-4.9-2.6-10-4.1-15.2-5.1l3.4-232.4c6.9,1.1,10.3,4.6,12.9,9.4c4,7.2,3.8,20,3.7,30.3c0,2.6-0.1,5,0,7.3   c0.2,21.2,0.2,35.4,0.3,46.7c0,20.8,0,33.4,1.2,65c0.4,11.3,2.6,20.4,6.6,28.1c5.5,10.4,14.9,16.6,25.2,16.6c0.4,0,0.7,0,1.1,0   c13.3-0.5,24-11.7,27.6-22.3c3.1-9.2,3-18,2.9-26.6c0-0.9,0-1.8,0-2.8c-0.1-7.8,0.2-16.7,4-23.5c3.8-6.7,11.4-11.2,19.1-11.2   c0.1,0,0.1,0,0.2,0c5.8,0.1,11.5,2.7,15.6,6.9c-0.6,0.9-1.1,1.7-1.7,2.6c-16,25.3-21.5,57-17,96.7c0,0.3,0,0.6,0.1,0.8   c0.4,3.3,0.8,6.6,1.3,10c1.5,9.5,9.7,16.6,19.3,16.6c0.2,0,0.3,0,0.5,0c22.5-0.6,46-1.1,71.4-1.5c1.6,9.4,5.1,18.4,10.7,26.4   c12.8,18.4,35.5,29.8,58.6,29.8c1.2,0,2.4,0,3.6-0.1c23.4-1.2,45.2-13.9,57-33.2c4.6-7.5,7.5-16,8.7-24.6   c15.6-0.1,31.1-0.3,46.7-0.4c12.1-0.1,24.2-0.2,36.2-0.3c2.7,19,13,37.1,29.1,48.5c12.3,8.7,27.4,13,42.6,13   c15.6,0,31.3-4.6,44.2-13.6c16.1-11.3,26.2-29.9,28.2-49.7c21.5-0.4,52.5-1.1,70.2-1.5c10.2-0.2,18.5-8.1,19.4-18.3   c1.9-23.7,1.1-46.6-2.5-66.2C922.1,546.5,921.6,544.1,921.1,541.6z M85.3,359c0.2-21.9,1.2-41.3,11.5-55.7   c16.2-22.7,49.4-25.6,79.3-26.5c29.4-0.9,58.7,0.8,73.7,19.9c11,14,11.7,34.3,11.4,55.6l-3.9,269c-3.7-0.1-7.2,0-10.5,0.1   c-22.5,0.5-45.5,0.4-67.7,0.4c-22.3,0-45.3,0-68,0.4c-8.6,0.2-18.2,0.4-27.9,1.9L85.3,359z M280.4,641c12,6.3,12.8,12.4,12.8,38.4   c-39.2-0.2-81.3,0.4-122.1,1c-40.8,0.6-83,1.2-122.1,1c-0.3-15.9,1.1-25.9,11.7-33.4c13.1-9.3,30.7-10.4,50.6-10.8   c22.5-0.5,45.5-0.4,67.7-0.4c22.3,0,45.3,0,68-0.4c5.4-0.1,11.1-0.2,16.7,0.3c0,0,0,0,0,0C269.7,637.2,275.4,638.4,280.4,641z    M875.3,510.1c1.1-4,4.2-7.7,8.6-10.5c1,1.1,2,2.2,3,3.3c7.3,8.2,13,19.4,17.1,32.9c-8.9-0.3-16.7-2.8-21.9-7.3   C876.4,523.8,873.6,516.2,875.3,510.1z M659,313.6c41.4,2.3,77.2,14.6,93.4,32c10.2,11,16.1,24.5,20,45.2   c3.2,17.5,4.7,38.5,4.3,59.7c-36.4,0.5-83,1.1-128.2,1.7c-0.2,0-0.5,0-0.7,0c-0.2-18-0.4-36.1-0.5-53.7   c-0.2-27.9-0.5-56.8-1.1-85.3C650.4,313.2,654.6,313.4,659,313.6z M509.9,405.4c1.8-18.2,8.5-35.8,18.9-49.6   c5.4-7.2,12.7-13.6,22.8-20.2c19.2-12.6,47.8-20.3,79.6-22c0.6,28.4,0.8,57.2,1.1,85c0.2,17.6,0.3,35.8,0.5,53.8   c-43.1,0.5-86.3,1.1-119.5,1.6c-1.4,0-2.7,0-4,0.1C508.1,437.1,508.3,421.1,509.9,405.4z M391.4,605c-1.9-22.1-0.2-41.2,5-57.7   c1.3,0.8,2.4,1.7,3.3,2.8c3.4,4.3,3.7,11,3.7,18.7c0,6.1,0,12.2,0.1,18.2c0,4.2,0,8.5-1.5,11.5c-1.6,3.2-5.6,5.7-10.5,6.5   C391.5,605,391.4,605,391.4,605z M586.9,654.3c-9.2,15.1-26.4,25.1-45,26c-19.3,1-38.6-8.2-49.1-23.3   c-10.8-15.5-11.8-37.2-2.5-52.7c8.2-13.8,26.5-22.5,47.8-22.6c0.2,0,0.5,0,0.7,0c21.5,0,40,8.5,48.5,22.3   C596.5,618.6,596.3,638.9,586.9,654.3z M798.6,672.5c-20.4,14.4-49.7,14.7-69.5,0.6c-20-14.2-28.9-42.7-20-65   c10-25.2,37.2-32.8,57.4-31.7c19.9,1.2,45.6,11.7,52.5,37.5c1.2,4.5,1.8,9.1,1.8,13.7c0,0.1,0,0.2,0,0.2c0,0.1,0,0.1,0,0.2   C820.8,645.6,812.7,662.6,798.6,672.5z M910.1,614.1c-0.2,2.5-2.3,4.5-4.8,4.5c-17.6,0.4-48.5,1.1-70,1.5c-0.4-3.4-1-6.7-1.9-10   c-7.4-27.6-33.3-46.7-66.1-48.6c-33.2-1.9-61.6,14.2-72.3,41.1c-2.4,6.2-3.9,12.7-4.3,19.2c-11.9,0.1-23.9,0.2-35.8,0.3   c-15.4,0.1-30.8,0.3-46.2,0.4c-0.8-9.4-3.7-18.6-8.6-26.5c-11.4-18.4-35.1-29.6-62.2-29.4c-26.5,0.2-49.7,11.7-60.6,30   c-5,8.4-7.7,17.9-8.3,27.6c-25.3,0.4-48.6,0.9-71,1.5c0,0-0.1,0-0.1,0c-2.2,0-4.1-1.6-4.5-3.9c-0.1-0.7-0.2-1.3-0.3-2   c0.3,0,0.7-0.1,1-0.2c9.5-1.7,17.4-7.1,21.2-14.5c3.2-6.2,3.2-12.9,3.2-18.4c0-6.1,0-12.1-0.1-18.2c0-7.7-0.1-19.3-7-28   c-2.5-3.1-5.7-5.6-9.4-7.5c1.5-2.9,3-5.8,4.8-8.6c24.4-38.7,56.2-55.3,106.5-55.7c37.3-0.6,87.1-1.2,135.2-1.8   c48.2-0.6,98.1-1.2,135.4-1.8c50.2,0,71,7.3,89.2,23.4c-6.1,4.5-10.4,10.5-12.3,17.2c-3.3,11.7,1.3,25.4,11.6,34   c10.3,8.7,23.1,10.7,32.1,10.8c0.4,0,0.7,0,1.1,0c0.7,0,1.3,0,2,0C911.1,569.2,912,590.6,910.1,614.1z M690.9,495.7   c0.2,4.1-3,7.7-7.1,7.9l-19.1,0.9c-0.1,0-0.3,0-0.4,0c-4,0-7.3-3.1-7.5-7.1c-0.2-4.1,3-7.7,7.1-7.9l19.1-0.9   C687.2,488.4,690.7,491.6,690.9,495.7z M571.1,497.4c0.3,4.1-2.8,7.7-7,8l-22.2,1.5c-0.2,0-0.3,0-0.5,0c-3.9,0-7.2-3-7.5-7   c-0.3-4.1,2.8-7.7,7-8l22.2-1.5C567.2,490.1,570.8,493.3,571.1,497.4z M136.9,569.3c10.6,8.2,23.8,12.3,36.7,12.3   c13.2,0,26.2-4.3,35.9-12.9c18.3-16.2,22.1-41.7,23.5-66.8c2.4-43.6,2-87.9-1-131.5c-1.3-18.1-3.5-37-14.6-52.1   c-9.4-12.7-24.3-20.8-40-21.9c-15.7-1-31.6,5.1-42.5,16.4c-17.6,18.2-19.6,44.8-20.2,70.4c0,0,0,0,0,0c-0.4,15.4-0.9,29.2-1.4,43.9   c-0.7,19.2-1.4,39.1-1.9,64.5C110.7,521.7,112.3,550.3,136.9,569.3z M126.3,491.9c0.5-25.3,1.2-45.1,1.9-64.2   c0.5-14.7,1-28.5,1.4-44.1v0c0.5-23.6,2.2-46,16-60.4c7.9-8.2,19.4-12.6,30.8-11.9c11.4,0.7,22.2,6.7,29,15.8   c8.8,11.9,10.6,28.3,11.7,44.2c3,43,3.4,86.6,1,129.6c-1.2,21.9-4.3,43.8-18.4,56.4c-13.7,12.2-37.7,12.2-53.5,0   C126.9,542.6,125.8,519,126.3,491.9z M153.3,455.7c1.6,0,3.1-0.1,4.7-0.1c-1.6,4.1-3.3,8.4-5,12.9c-2,5.2-4,10.6-6.2,16.2   c-1.9,4.9-0.2,10.3,4.3,13.1c1.8,1.1,3.8,1.7,5.7,1.7c2.9,0,5.8-1.2,7.9-3.5c17.2-18.8,29.2-32.8,48-55.2c2.7-3.3,3.3-7.7,1.5-11.5   c-1.8-3.8-5.5-6.1-9.7-6.1c0,0-0.1,0-0.1,0c-2.8,0-5.2,0.1-7.4,0.1c-3.4,0.1-6.3,0.1-9.6,0.1c0.9-5.1,2.4-13.7,5.1-28.2   c0.9-5.1-1.7-10-6.5-11.9c-4.8-1.9-10.1-0.3-13,4c-9.2,13.8-26.1,38.8-35.3,51.7c-2.4,3.3-2.7,7.6-0.8,11.2   c1.9,3.6,5.6,5.8,9.6,5.8C148.9,455.8,151.1,455.7,153.3,455.7z M173.9,412.6c-3.5,19.4-3.1,20-1,22.6c1.3,1.7,3.4,2.7,5.5,2.9   c7.2,0.4,11.5,0.4,16.7,0.2c-9.7,11.5-17.7,20.8-26.1,30.3c2.5-6.5,4.8-12.5,7-17.4c1-2.3,0.8-4.9-0.5-7c-1.3-2.1-3.6-3.4-6.1-3.5   c-2.8-0.1-5.2-0.1-7.4-0.1c-2.7,0-5.1,0.1-7.3,0.1C160.3,432.6,167.2,422.5,173.9,412.6z M642.1,612.4c-4.1,0-7.4-3.2-7.5-7.3   c-1.1-49-2.2-65.5-2-117.4c0-4.1,3.4-7.5,7.5-7.5c0,0,0,0,0,0c4.1,0,7.5,3.4,7.5,7.5c-0.2,51.8,0.9,68.1,2,117   c0.1,4.1-3.2,7.6-7.3,7.7C642.2,612.4,642.1,612.4,642.1,612.4z"/></g><g class="st0" id="flat"><g class="st2"><path class="st8" d="M789.8,461.2c-75.3,1.1-198,2.4-273.3,3.6c-54.1,0.4-88.5,19.6-113.8,59.8c-22,34.9-18.6,77.3-14.6,103.3    c0.9,6.1,6.2,10.5,12.3,10.3c26.2-0.7,52.5-1.2,78.9-1.6l355.3-3.9c21.8-0.4,59.4-1.2,77.9-1.7c6.4-0.2,11.7-5.1,12.2-11.5    c3.5-42.6-1.5-91.2-25.2-117.8C875.5,474.7,856.9,461.2,789.8,461.2z"/><path class="st7" d="M545.9,693.3c20.6-1.1,40.7-12.3,51.5-29.9c10.8-17.6,11.3-41.3,0.5-58.8c-21.6-34.8-90-34.9-111,0.5    c-11.1,18.6-9.5,43.7,2.9,61.5C502.1,684.3,524.2,694.4,545.9,693.3z"/><path class="st7" d="M707.2,610c-10.3,26.1,0,58.4,22.9,74.6s56,15.5,78.9-0.6c20.9-14.8,30.1-42.5,23.5-67.3    C817.9,562,727.9,557.7,707.2,610z"/><path class="st10" d="M175.8,269.3c-31.2,1-67,4.3-85.2,29.7c-12.1,16.9-12.7,39.2-12.9,60c-0.8,91.4-1.5,182.9-2.3,274.3    l189.1-4.1c1.3-92.3,2.7-184.5,4-276.8c0.3-21,0-43.9-13-60.3C237.9,269.4,204.6,268.4,175.8,269.3z M225.5,501.4    c-1.2,22.3-4.3,46.8-20.9,61.6c-17.1,15.1-45,14.2-63.1,0.3c-22.5-17.3-23.2-45.2-22.7-71.6c0.8-44.6,2.4-72.5,3.3-108.3    c0.5-23.2,2-48.7,18.1-65.4c9.4-9.7,23.2-15,36.7-14.2c13.5,0.9,26.5,8,34.5,18.8c10,13.6,12,31.3,13.2,48.2    C227.5,414.3,227.9,457.9,225.5,501.4z"/><path class="st6" d="M407.8,549.4c-3.4-4.2-8.4-6.7-13.8-7.7c-7.3,7.9-11.9,55-7.3,75.9c2.8,0.1,5.5,0,8.3-0.5    c6.5-1.2,13-4.7,16-10.6c2.3-4.6,2.4-9.9,2.4-15.1c0-6.1,0-12.3-0.1-18.4C413.2,564.8,412.9,555.9,407.8,549.4z"/><path class="st6" d="M559.8,618.2c-12.4-10.3-31.9-7.2-37.9,8.5c-3.4,8.7-0.9,19.4,6,25.8c6.9,6.4,17.7,8,26.2,4    s14-13.5,13.4-22.9C567,627.7,564.3,621.9,559.8,618.2z"/><path class="st6" d="M754.4,611.3c-7,4.9-11,13.7-10.6,22.2c0.4,7,3.6,13.8,8.9,18.3c5.3,4.6,12.5,6.8,19.4,5.9    c10.1-1.3,18.9-9.7,20.8-19.7C796.8,617,772.9,598.2,754.4,611.3z"/><path class="st9" d="M892.9,494.4c-12.1,6.4-16.4,11.3-18.1,17.4c-2.7,9.5,1.7,20.1,9.3,26.5c7.6,6.4,17.7,9,27.6,9.2    c1.8,0,3.6,0,8.8-1.6c-4.1-17.3-10.8-32.8-21-44.2C897.3,499.1,895.1,496.7,892.9,494.4z"/><path class="st9" d="M204.4,430.6c-10.7,0.1-14.9,0.5-25.6-0.1c-0.5,0,3.4-21.4,6.3-36.8c0.6-3.5-3.9-5.3-5.9-2.4    c-10.1,15-26.3,39.1-35.4,51.9c-1.5,2.2,0,5.1,2.7,5.1c7.6-0.1,12.9-0.5,22.8-0.2c-4.5,10.1-9.5,24.2-15.5,39.3    c-1.3,3.3,3,6,5.4,3.4c17.1-18.8,28.9-32.5,47.8-55C208.7,433.8,207.1,430.5,204.4,430.6z"/><path class="st7" d="M920.1,539.6c-2.9,0.3-5.6,0.4-8.2,0.4c-9.3-0.1-17.4-2.8-22.9-7.4c-5.8-4.9-8.6-12.6-6.9-18.8    c1.5-5.3,6.4-10.1,13.1-12.8c3.8-1.6,5.7-6,4.1-9.8c-1.6-3.8-6-5.7-9.8-4.1c-11.1,4.6-19.1,12.8-21.8,22.6    c-3.3,11.8,1.4,25.6,11.7,34.3c10.4,8.8,23.3,10.8,32.4,10.9c0.4,0,0.8,0,1.1,0c2.9,0,5.8-0.2,8.9-0.5c4.1-0.4,7.1-4.1,6.7-8.2    C927.9,542.1,924.2,539.1,920.1,539.6z"/><path class="st7" d="M668.7,493.2c-4.1,0.2-7.3,3.7-7.1,7.9c0.2,4,3.5,7.1,7.5,7.1c0.1,0,0.2,0,0.4,0l19.3-1    c4.1-0.2,7.3-3.7,7.1-7.9c-0.2-4.1-3.7-7.3-7.9-7.1L668.7,493.2z"/><path class="st7" d="M566.8,494.1l-22.4,1.5c-4.1,0.3-7.3,3.9-7,8c0.3,4,3.6,7,7.5,7c0.2,0,0.3,0,0.5,0l22.4-1.5    c4.1-0.3,7.3-3.9,7-8S571,493.8,566.8,494.1z"/><path class="st7" d="M386.5,625.1c0.6,0,1.2,0,1.7,0c2.9,0,5.5-0.2,8-0.7c9.6-1.7,17.6-7.1,21.4-14.6c3.2-6.3,3.2-13,3.2-18.5    c0-6.1,0-12.3-0.1-18.4c0-7.8-0.1-19.5-7-28.2c-4.3-5.4-10.6-9-18.3-10.4c-4.1-0.8-8,1.9-8.7,6c-0.8,4.1,1.9,8,6,8.7    c2.9,0.5,6.8,1.8,9.3,5c3.5,4.3,3.8,11.2,3.8,19c0,6.1,0,12.3,0.1,18.4c0,4.2,0,8.6-1.5,11.6c-1.6,3.2-5.7,5.7-10.6,6.6    c-2,0.4-4.2,0.5-6.7,0.4c-4.1-0.1-7.6,3.1-7.7,7.3C379.1,621.5,382.3,625,386.5,625.1z"/><path class="st7" d="M641.1,486.4C641.1,486.4,641.1,486.4,641.1,486.4c-4.2,0-7.5,3.3-7.5,7.5c-0.1,37.2,0.7,87.7,1.4,122.4    c0.1,4.1,3.4,7.3,7.5,7.3c0.1,0,0.1,0,0.2,0c4.1-0.1,7.4-3.5,7.3-7.7c-0.8-34.7-1.5-85-1.4-122.1    C648.6,489.8,645.3,486.4,641.1,486.4z"/><path class="st7" d="M502.2,474.3c0.2,0,0.4,0,0.6,0c4.1-0.3,7.2-4,6.8-8.1c-1.7-19.7-1.6-37.9,0.2-55.8    c1.8-18.2,8.5-35.8,18.9-49.6c5.4-7.2,12.7-13.6,22.8-20.2c19.2-12.6,47.8-20.3,79.6-22c0.6,28.4,0.8,57.2,1.1,85    c0.2,20.1,0.4,40.9,0.7,61.3c0.1,4.1,3.4,7.4,7.5,7.4c0,0,0.1,0,0.1,0c4.1-0.1,7.5-3.5,7.4-7.6c-0.3-20.4-0.5-41.1-0.6-61.2    c-0.2-27.9-0.5-56.8-1.1-85.3c4.2,0,8.5,0.2,12.8,0.4c41.4,2.3,77.2,14.6,93.4,32c10.2,11,16.1,24.5,20,45.2    c3.6,19.4,5,43.2,4.1,66.8c-0.2,4.1,3.1,7.6,7.2,7.8c4.2,0.2,7.6-3.1,7.8-7.2c1-24.7-0.5-49.6-4.3-70.1    c-2.9-15.8-8.2-36-23.7-52.7C722.9,296.8,601.6,290,543.3,328c-11.6,7.6-20,15.1-26.5,23.8c-12,16-19.8,36.3-21.9,57.2    c-1.9,18.8-1.9,37.9-0.2,58.5C495.1,471.4,498.4,474.3,502.2,474.3z"/><path class="st7" d="M300.6,694.5c2,0,3.9-0.8,5.3-2.2c1.4-1.4,2.2-3.3,2.2-5.3l0-5c0-27.9,0-43.3-20.8-54.3    c-13.2-6.9-28.4-6.6-40.7-6.4c-22.5,0.5-45.5,0.4-67.7,0.4c-22.3,0-45.3,0-68,0.4c-18.3,0.4-41,0.9-59,13.6    c-19.3,13.7-18.5,33.9-17.8,53.4c0.2,4,3.4,7.2,7.4,7.2c7,0,14.1,0.1,21.3,0.1c35.2,0,72.3-0.5,108.3-1    C214.7,694.8,259.5,694.2,300.6,694.5z M49,681.4c-0.3-15.9,1.1-25.9,11.7-33.4c13.1-9.3,30.7-10.4,50.6-10.8    c22.5-0.5,45.5-0.4,67.7-0.4c22.3,0,45.3,0,68-0.4c11.1-0.2,23.7-0.5,33.4,4.6c12,6.3,12.8,12.4,12.8,38.4    c-39.2-0.2-81.3,0.4-122.1,1C130.3,681,88.1,681.6,49,681.4z"/><path class="st7" d="M380.1,512.2c0.1,0,0.1,0,0.2,0c7.3,0.1,14.6,4.2,18.5,10.5c2.2,3.5,6.8,4.6,10.3,2.5    c3.5-2.2,4.6-6.8,2.5-10.3c-6.5-10.6-18.7-17.5-31.1-17.6c-0.1,0-0.2,0-0.3,0c-13.1,0-25.7,7.4-32.2,18.8c-5.4,9.5-6,20.5-5.9,31    c0,1,0,1.9,0,2.8c0.1,7.9,0.2,14.8-2.1,21.5c-2.2,6.5-8.7,9-14,9.2c-5,0.2-9.7-5.3-12.4-10.5c-2.9-5.6-4.5-12.7-4.9-21.7    c-1.2-31.3-1.2-43.8-1.2-64.4c0-11.4,0-25.6-0.3-46.9c0-2.1,0-4.5,0-7c0.2-12.1,0.4-27.1-5.6-37.8c-6.9-12.4-17.9-18.1-33.8-17.4    c-4.1,0.2-7.4,3.7-7.2,7.8c0.2,4.1,3.7,7.4,7.8,7.2c11.9-0.5,16.6,3.5,20,9.7c4,7.2,3.8,20,3.7,30.3c0,2.6-0.1,5,0,7.3    c0.2,21.2,0.2,35.4,0.3,46.7c0,20.8,0,33.4,1.2,65c0.4,11.3,2.6,20.4,6.6,28.1c6.2,11.8,15.4,18.6,25.4,18.6c0.3,0,0.6,0,0.9,0    c12.9-0.5,23.8-8.1,27.6-19.3c3.1-9.2,3-18,2.9-26.6c0-0.9,0-1.8,0-2.8c-0.1-7.8,0.2-16.7,4-23.5    C364.7,516.7,372.4,512.2,380.1,512.2z"/><path class="st7" d="M177.3,296.4c-15.7-1-31.6,5.1-42.5,16.4c-17.6,18.2-19.6,44.8-20.2,70.4c0,0,0,0,0,0    c-0.4,15.4-0.9,29.2-1.4,43.9c-0.7,19.2-1.4,39.1-1.9,64.5c-0.5,30.1,1,58.6,25.6,77.6c10.6,8.2,23.8,12.3,36.7,12.3    c13.2,0,26.2-4.3,35.9-12.9c18.3-16.2,22.1-41.7,23.5-66.8c2.4-43.6,2-87.9-1-131.5c-1.3-18.1-3.5-37-14.6-52.1    C208,305.6,193,297.4,177.3,296.4z M218,501c-1.2,21.9-4.3,43.8-18.4,56.4c-13.7,12.2-37.7,12.2-53.5,0    c-19.1-14.7-20.3-38.4-19.8-65.5c0.5-25.3,1.2-45.1,1.9-64.2c0.5-14.7,1-28.5,1.4-44.1v0c0.5-23.6,2.2-46,16-60.4    c7.9-8.2,19.4-12.6,30.8-11.9c11.4,0.7,22.2,6.7,29,15.8c8.8,11.9,10.6,28.3,11.7,44.2C220,414.4,220.3,458,218,501z"/></g></g><g class="st0" id="colored_x5F_line"><g class="st2"><path class="st9" d="M789.8,461.2c-75.3,1.1-198,2.4-273.3,3.6c-54.1,0.4-88.5,19.6-113.8,59.8c-22,34.9-18.6,77.3-14.6,103.3    c0.9,6.1,6.2,10.5,12.3,10.3c26.2-0.7,52.5-1.2,78.9-1.6l34.9-0.4c-0.2-4,0.4-8,1.8-11.8c7.6-19.8,32.2-23.6,47.9-10.7    c5.7,4.7,9.2,12,9.7,19.4c0.1,0.8,0.1,1.6,0,2.4l166.7-1.8c0,0,0,0,0,0c-0.5-9.7,4.1-19.7,12-25.3c19.4-13.7,44,3.2,44.4,24.7    l37.8-0.4c21.8-0.4,59.4-1.2,77.9-1.7c6.4-0.2,11.7-5.1,12.2-11.5c3.5-42.6-1.5-91.2-25.2-117.8    C875.5,474.7,856.9,461.2,789.8,461.2z"/><path class="st9" d="M268.7,352.4c0.3-21,0-43.9-13-60.3c-17.8-22.6-51.1-23.7-79.8-22.8c-31.2,1-67,4.3-85.2,29.7    c-12.1,16.9-12.7,39.2-12.9,60c-0.8,91.4-1.5,182.9-2.3,274.3l189.1-4.1C266,536.9,267.3,444.6,268.7,352.4z M225.5,501.4    c-1.2,22.3-4.3,46.8-20.9,61.6c-17.1,15.1-45,14.2-63.1,0.3c-22.5-17.3-23.2-45.2-22.7-71.6c0.8-44.6,2.4-72.5,3.3-108.3    c0.5-23.2,2-48.7,18.1-65.4c9.4-9.7,23.2-15,36.7-14.2c13.5,0.9,26.5,8,34.5,18.8c10,13.6,12,31.3,13.2,48.2    C227.5,414.3,227.9,457.9,225.5,501.4z"/><path class="st9" d="M204.4,430.6c-10.7,0.1-14.9,0.5-25.6-0.1c-0.5,0,3.4-21.4,6.3-36.8c0.6-3.5-3.9-5.3-5.9-2.4    c-10.1,15-26.3,39.1-35.4,51.9c-1.5,2.2,0,5.1,2.7,5.1c7.6-0.1,12.9-0.5,22.8-0.2c-4.5,10.1-9.5,24.2-15.5,39.3    c-1.3,3.3,3,6,5.4,3.4c17.1-18.8,28.9-32.5,47.8-55C208.7,433.8,207.1,430.5,204.4,430.6z"/><path class="st5" d="M545.9,693.3c20.6-1.1,40.7-12.3,51.5-29.9c10.8-17.6,11.3-41.3,0.5-58.8c-21.6-34.8-90-34.9-111,0.5    c-11.1,18.6-9.5,43.7,2.9,61.5C502.1,684.3,524.2,694.4,545.9,693.3z M521.9,626.7c6-15.7,25.5-18.7,37.9-8.5    c4.5,3.7,7.3,9.5,7.6,15.3c0.6,9.4-4.9,18.8-13.4,22.9s-19.3,2.4-26.2-4C521,646.1,518.5,635.4,521.9,626.7z"/><path class="st5" d="M707.2,610c-10.3,26.1,0,58.4,22.9,74.6s56,15.5,78.9-0.6c20.9-14.8,30.1-42.5,23.5-67.3    C817.9,562,727.9,557.7,707.2,610z M793,638c-1.8,10-10.7,18.4-20.8,19.7c-6.9,0.9-14.2-1.4-19.4-5.9c-5.3-4.6-8.5-11.4-8.9-18.3    c-0.5-8.5,3.6-17.3,10.6-22.2C772.9,598.2,796.8,617,793,638z"/><path class="st5" d="M920.1,539.6c-2.9,0.3-5.6,0.4-8.2,0.4c-9.3-0.1-17.4-2.8-22.9-7.4c-5.8-4.9-8.6-12.6-6.9-18.8    c1.5-5.3,6.4-10.1,13.1-12.8c3.8-1.6,5.7-6,4.1-9.8c-1.6-3.8-6-5.7-9.8-4.1c-11.1,4.6-19.1,12.8-21.8,22.6    c-3.3,11.8,1.4,25.6,11.7,34.3c10.4,8.8,23.3,10.8,32.4,10.9c0.4,0,0.8,0,1.1,0c2.9,0,5.8-0.2,8.9-0.5c4.1-0.4,7.1-4.1,6.7-8.2    C927.9,542.1,924.2,539.1,920.1,539.6z"/><path class="st5" d="M668.7,493.2c-4.1,0.2-7.3,3.7-7.1,7.9c0.2,4,3.5,7.1,7.5,7.1c0.1,0,0.2,0,0.4,0l19.3-1    c4.1-0.2,7.3-3.7,7.1-7.9c-0.2-4.1-3.7-7.3-7.9-7.1L668.7,493.2z"/><path class="st5" d="M566.8,494.1l-22.4,1.5c-4.1,0.3-7.3,3.9-7,8c0.3,4,3.6,7,7.5,7c0.2,0,0.3,0,0.5,0l22.4-1.5    c4.1-0.3,7.3-3.9,7-8S571,493.8,566.8,494.1z"/><path class="st5" d="M386.5,625.1c0.6,0,1.2,0,1.7,0c2.9,0,5.5-0.2,8-0.7c9.6-1.7,17.6-7.1,21.4-14.6c3.2-6.3,3.2-13,3.2-18.5    c0-6.1,0-12.3-0.1-18.4c0-7.8-0.1-19.5-7-28.2c-4.3-5.4-10.6-9-18.3-10.4c-4.1-0.8-8,1.9-8.7,6c-0.8,4.1,1.9,8,6,8.7    c2.9,0.5,6.8,1.8,9.3,5c3.5,4.3,3.8,11.2,3.8,19c0,6.1,0,12.3,0.1,18.4c0,4.2,0,8.6-1.5,11.6c-1.6,3.2-5.7,5.7-10.6,6.6    c-2,0.4-4.2,0.5-6.7,0.4c-4.1-0.1-7.6,3.1-7.7,7.3C379.1,621.5,382.3,625,386.5,625.1z"/><path class="st5" d="M641.1,486.4C641.1,486.4,641.1,486.4,641.1,486.4c-4.2,0-7.5,3.3-7.5,7.5c-0.1,37.2,0.7,87.7,1.4,122.4    c0.1,4.1,3.4,7.3,7.5,7.3c0.1,0,0.1,0,0.2,0c4.1-0.1,7.4-3.5,7.3-7.7c-0.8-34.7-1.5-85-1.4-122.1    C648.6,489.8,645.3,486.4,641.1,486.4z"/><path class="st5" d="M502.2,474.3c0.2,0,0.4,0,0.6,0c4.1-0.3,7.2-4,6.8-8.1c-1.7-19.7-1.6-37.9,0.2-55.8    c1.8-18.2,8.5-35.8,18.9-49.6c5.4-7.2,12.7-13.6,22.8-20.2c19.2-12.6,47.8-20.3,79.6-22c0.6,28.4,0.8,57.2,1.1,85    c0.2,20.1,0.4,40.9,0.7,61.3c0.1,4.1,3.4,7.4,7.5,7.4c0,0,0.1,0,0.1,0c4.1-0.1,7.5-3.5,7.4-7.6c-0.3-20.4-0.5-41.1-0.6-61.2    c-0.2-27.9-0.5-56.8-1.1-85.3c4.2,0,8.5,0.2,12.8,0.4c41.4,2.3,77.2,14.6,93.4,32c10.2,11,16.1,24.5,20,45.2    c3.6,19.4,5,43.2,4.1,66.8c-0.2,4.1,3.1,7.6,7.2,7.8c4.2,0.2,7.6-3.1,7.8-7.2c1-24.7-0.5-49.6-4.3-70.1    c-2.9-15.8-8.2-36-23.7-52.7C722.9,296.8,601.6,290,543.3,328c-11.6,7.6-20,15.1-26.5,23.8c-12,16-19.8,36.3-21.9,57.2    c-1.9,18.8-1.9,37.9-0.2,58.5C495.1,471.4,498.4,474.3,502.2,474.3z"/><path class="st5" d="M300.6,694.5c2,0,3.9-0.8,5.3-2.2c1.4-1.4,2.2-3.3,2.2-5.3l0-5c0-27.9,0-43.3-20.8-54.3    c-13.2-6.9-28.4-6.6-40.7-6.4c-22.5,0.5-45.5,0.4-67.7,0.4c-22.3,0-45.3,0-68,0.4c-18.3,0.4-41,0.9-59,13.6    c-19.3,13.7-18.5,33.9-17.8,53.4c0.2,4,3.4,7.2,7.4,7.2c7,0,14.1,0.1,21.3,0.1c35.2,0,72.3-0.5,108.3-1    C214.7,694.8,259.5,694.2,300.6,694.5z M49,681.4c-0.3-15.9,1.1-25.9,11.7-33.4c13.1-9.3,30.7-10.4,50.6-10.8    c22.5-0.5,45.5-0.4,67.7-0.4c22.3,0,45.3,0,68-0.4c11.1-0.2,23.7-0.5,33.4,4.6c12,6.3,12.8,12.4,12.8,38.4    c-39.2-0.2-81.3,0.4-122.1,1C130.3,681,88.1,681.6,49,681.4z"/><path class="st5" d="M380.1,512.2c0.1,0,0.1,0,0.2,0c7.3,0.1,14.6,4.2,18.5,10.5c2.2,3.5,6.8,4.6,10.3,2.5    c3.5-2.2,4.6-6.8,2.5-10.3c-6.5-10.6-18.7-17.5-31.1-17.6c-0.1,0-0.2,0-0.3,0c-13.1,0-25.7,7.4-32.2,18.8c-5.4,9.5-6,20.5-5.9,31    c0,1,0,1.9,0,2.8c0.1,7.9,0.2,14.8-2.1,21.5c-2.2,6.5-8.7,9-14,9.2c-5,0.2-9.7-5.3-12.4-10.5c-2.9-5.6-4.5-12.7-4.9-21.7    c-1.2-31.3-1.2-43.8-1.2-64.4c0-11.4,0-25.6-0.3-46.9c0-2.1,0-4.5,0-7c0.2-12.1,0.4-27.1-5.6-37.8c-6.9-12.4-17.9-18.1-33.8-17.4    c-4.1,0.2-7.4,3.7-7.2,7.8c0.2,4.1,3.7,7.4,7.8,7.2c11.9-0.5,16.6,3.5,20,9.7c4,7.2,3.8,20,3.7,30.3c0,2.6-0.1,5,0,7.3    c0.2,21.2,0.2,35.4,0.3,46.7c0,20.8,0,33.4,1.2,65c0.4,11.3,2.6,20.4,6.6,28.1c6.2,11.8,15.4,18.6,25.4,18.6c0.3,0,0.6,0,0.9,0    c12.9-0.5,23.8-8.1,27.6-19.3c3.1-9.2,3-18,2.9-26.6c0-0.9,0-1.8,0-2.8c-0.1-7.8,0.2-16.7,4-23.5    C364.7,516.7,372.4,512.2,380.1,512.2z"/><path class="st5" d="M177.3,296.4c-15.7-1-31.6,5.1-42.5,16.4c-17.6,18.2-19.6,44.8-20.2,70.4c0,0,0,0,0,0    c-0.4,15.4-0.9,29.2-1.4,43.9c-0.7,19.2-1.4,39.1-1.9,64.5c-0.5,30.1,1,58.6,25.6,77.6c10.6,8.2,23.8,12.3,36.7,12.3    c13.2,0,26.2-4.3,35.9-12.9c18.3-16.2,22.1-41.7,23.5-66.8c2.4-43.6,2-87.9-1-131.5c-1.3-18.1-3.5-37-14.6-52.1    C208,305.6,193,297.4,177.3,296.4z M218,501c-1.2,21.9-4.3,43.8-18.4,56.4c-13.7,12.2-37.7,12.2-53.5,0    c-19.1-14.7-20.3-38.4-19.8-65.5c0.5-25.3,1.2-45.1,1.9-64.2c0.5-14.7,1-28.5,1.4-44.1v0c0.5-23.6,2.2-46,16-60.4    c7.9-8.2,19.4-12.6,30.8-11.9c11.4,0.7,22.2,6.7,29,15.8c8.8,11.9,10.6,28.3,11.7,44.2C220,414.4,220.3,458,218,501z"/></g></g></svg>