<?xml version="1.0" ?><svg style="enable-background:new 0 0 960 960;" version="1.1" viewBox="0 0 960 960" xml:space="preserve" xmlns="http://www.w3.org/2000/svg" xmlns:xlink="http://www.w3.org/1999/xlink"><style type="text/css">
	.st0{display:none;}
	.st1{display:inline;opacity:0.93;}
	.st2{display:inline;}
	.st3{fill:none;stroke:#000000;stroke-width:15;stroke-linecap:round;stroke-linejoin:round;stroke-miterlimit:10;}
	.st4{display:inline;fill:none;stroke:#000000;stroke-width:15;stroke-linecap:round;stroke-linejoin:round;stroke-miterlimit:10;}
	.st5{fill:#222222;}
	.st6{fill:#DDEDE7;}
	.st7{fill:#1A1D3F;}
	.st8{fill:#ED644E;}
	.st9{fill:#E9B44D;}
	.st10{fill:#3DC5A1;}
	.st11{fill:#494EDF;}
</style><g class="st0" id="guide"/><g class="st0" id="sketch"/><g class="st0" id="stroke"><g class="st2"><path class="st3" d="M251.8,774.2c-15,25.2-12.9,59.1,3.9,83.2c16.7,24.1,46.8,37.8,76.1,36.2c27.9-1.4,55.1-16.6,69.7-40.5    c14.6-23.8,15.3-55.9,0.6-79.6C372.8,726.4,280.2,726.3,251.8,774.2z"/><path class="st3" d="M550.1,780.9c-14,35.3,0,79.1,31,101c31,21.9,75.8,21,106.8-0.8c28.3-20,40.7-57.6,31.8-91.1    C699.9,715.9,578.1,710.1,550.1,780.9z"/><path class="st3" d="M299.2,803.4c-4.5,11.8-1.2,26.3,8.1,34.9s24,10.8,35.4,5.3c11.4-5.5,18.9-18.3,18.1-30.9    c-0.5-7.9-4.2-15.7-10.3-20.7C333.7,778.1,307.4,782.2,299.2,803.4z"/><path class="st3" d="M613.9,782.6c-9.5,6.7-14.9,18.5-14.3,30.1c0.5,9.4,4.9,18.6,12,24.8c7.1,6.2,16.9,9.2,26.3,8    c13.7-1.8,25.6-13.1,28.1-26.7C671.4,790.3,639,764.9,613.9,782.6z"/><path class="st3" d="M544.7,813.6c-44,0.4-88.1,0.7-132.1,1.1"/><path class="st3" d="M241.6,816.7c-35.8,0.6-71.5,1.3-106.8,2.2c-8.3,0.2-15.4-5.8-16.7-13.9c-5.4-35.2-10-92.6,19.8-139.8    c34.3-54.3,80.8-80.4,154.1-80.9c101.9-1.5,268-3.3,369.9-4.8c90.8,0,116,18.2,148.5,54.8c32.1,36,38.8,101.8,34.1,159.4    c-0.7,8.7-7.8,15.4-16.5,15.6c-25.1,0.6-75.9,1.8-105.5,2.2"/><path class="st3" d="M800.6,624c-10.8,4.4-20.5,12.8-23.6,24c-3.6,12.9,2.3,27.2,12.6,35.9s24,12.2,37.4,12.4    c4.1,0.1,8.2-0.2,12.3-0.6"/><path class="st3" d="M498.4,632.9c8.7-0.4,17.4-0.9,26.1-1.3"/><path class="st3" d="M330.4,636.1c10.1-0.7,20.2-1.4,30.4-2.1"/><path class="st3" d="M126.1,688.4c7.3,1.4,14.1,4.7,18.7,10.5c6.9,8.7,7.3,20.8,7.3,32c0,8.3,0,16.6,0.1,24.9    c0,6.9,0,14.2-3.2,20.4c-4.1,8-12.8,12.8-21.7,14.3c-3.7,0.7-7.4,0.8-11.2,0.7"/><path class="st3" d="M276.9,584.7c-2.2-26-2.3-52.1,0.2-78.1c2.6-26,12.1-52.1,27.8-73c9.2-12.1,21-21.7,33.7-30.1    c75.9-49.6,236.2-40.1,287.6,15.3c17.5,18.8,25.1,41.5,29.8,66.9c5.5,29.7,7,63.4,5.7,93.5"/></g><path class="st4" d="M463.1,371.5c1.5,70.2,1.5,140.3,2.5,210.5"/><g class="st2"><path class="st3" d="M418.2,94.9c-21,0.2-48.1,0.4-68.4,0.7c-12.8,0.2-34.6-0.7-44.4,9.6c-13.7,14.3-15.5,52.5-15,77.8    c0.5,27.4-1.8,60,20.7,75.6c14.7,10.2,31.8,8.4,49.6,8.2c12.7-0.1,21.4-0.2,34.1-0.3"/><path class="st3" d="M529.1,94c33.1-0.2,49.7-0.4,63.6-0.5c41.2-0.3,42.4,20.2,43,41.6c0.9,34.3,0.7,56.7,1.7,81.7    c0.5,13-1.4,26.3-9.8,36.2c-9.6,11.3-25.5,12.3-40.3,12.5c-26,0.2-57,0.4-82.9,0.5c-11.9,25.9-17.5,42.4-27.9,64.4    c-4.4-10.7-7.8-18.3-12.2-29"/><path class="st3" d="M635.9,143.9c10-0.3,20.9-0.6,30.9-1c1.4,19.6,1.7,39.3,3.1,58.9c-11,0.4-22,0.8-33,1.3"/><path class="st3" d="M406.2,193.8c17.1-0.2,35.2,0.7,51.3-0.4c-10.2,22.8-21.4,54.6-34.8,88.6c-3,7.5,6.7,13.6,12.1,7.6    c38.6-42.3,65.1-73.2,107.5-123.8c4-4.8,0.6-12-5.7-12c-24.1,0.3-33.6,1.2-57.6-0.1c-1.2-0.1,7.6-48.2,14.1-82.9    c1.5-7.8-8.8-12-13.2-5.4c-22.7,33.8-59.3,88.2-79.8,116.9C396.7,187.2,400.3,193.9,406.2,193.8z"/></g></g><g id="outline"><path class="st5" d="M355.3,786.2c-10.5-8.7-24.5-11.9-37.5-8.5c-11.9,3.1-21.2,11.5-25.6,23c-5.6,14.7-1.5,32.4,10.1,43.1   c7.3,6.7,17.2,10.3,27,10.3c5.7,0,11.5-1.2,16.7-3.7c14.2-6.8,23.4-22.5,22.3-38.2C367.7,801.9,362.9,792.5,355.3,786.2z    M339.5,836.9c-8.7,4.1-20.1,2.4-27.1-4.1c-7.1-6.5-9.7-17.7-6.2-26.7c0,0,0,0,0,0c2.7-7.1,8.2-12,15.4-13.9   c2.2-0.6,4.4-0.8,6.6-0.8c6.2,0,12.5,2.2,17.5,6.4c4.4,3.6,7.2,9.4,7.6,15.5C354,822.8,348.2,832.7,339.5,836.9z M653.6,775.8   c-14.1-9-30.6-8.8-44,0.7v0c-11.4,8-18.2,22.4-17.4,36.6c0.6,11.6,5.9,22.6,14.6,30.1c7.5,6.5,17.4,10.1,27.2,10.1   c1.7,0,3.3-0.1,5-0.3c16.9-2.2,31.5-15.9,34.6-32.7C676.6,803.2,668.6,785.4,653.6,775.8z M658.7,817.4   c-1.9,10.4-11.2,19.2-21.7,20.6c-7.2,0.9-14.8-1.4-20.4-6.3c-5.5-4.8-9.1-12.1-9.5-19.5c-0.5-9.2,3.9-18.4,11.1-23.5   c11.9-8.4,23-3,27.2-0.3C653.8,793.7,661.1,804.7,658.7,817.4z M490.9,633.2c-0.2-4.1,3-7.7,7.1-7.9l26.1-1.3   c4.1-0.2,7.7,3,7.9,7.1s-3,7.7-7.1,7.9l-26.1,1.3c-0.1,0-0.3,0-0.4,0C494.4,640.4,491.1,637.2,490.9,633.2z M322.9,636.7   c-0.3-4.1,2.8-7.7,7-8l30.4-2.1c4.1-0.3,7.7,2.8,8,7c0.3,4.1-2.8,7.7-7,8l-30.4,2.1c-0.2,0-0.3,0-0.5,0   C326.5,643.6,323.2,640.6,322.9,636.7z M108.8,792.5c0.5,4.5,1.1,9,1.8,13.6c1.8,11.7,11.9,20.3,23.7,20.3c0.2,0,0.4,0,0.6,0   c31.5-0.8,64.3-1.5,100-2.1c1.8,13.2,6.7,26.1,14.5,37.3c17,24.4,47.1,39.6,77.8,39.6c1.6,0,3.2,0,4.8-0.1   c31.1-1.6,60.1-18.5,75.7-44c6.5-10.7,10.4-22.7,11.8-35c22.1-0.2,44.2-0.4,66.4-0.6c17.3-0.1,34.6-0.3,51.9-0.4   c0.7,5.9,1.9,11.7,3.7,17.5c6.3,20.2,18.8,37.8,35.2,49.4c16.3,11.5,36.4,17.3,56.7,17.3c20.8,0,41.7-6.1,58.8-18.1   c22-15.5,35.5-41.2,37.5-68.3c29.5-0.5,73.6-1.5,98.4-2.1c12.5-0.3,22.8-10,23.8-22.5c1.7-21,3.2-60.9-5.3-99.2c0-0.1,0-0.1,0-0.2   c-0.1-0.7-0.2-1.3-0.4-1.9c-5.5-23.6-14.8-46.5-30.2-63.8c-17.5-19.6-32.8-33.6-55.1-43c-22.1-9.3-50.5-13.7-91.3-14.2   c0.8-31-1.4-61.8-6.1-87.4c-3.9-21.2-11-48.4-31.7-70.6c-25.5-27.5-77.8-46-139.7-49.4c-9.8-0.5-19.5-0.7-29.1-0.5c0,0-0.1,0-0.1,0   c0,0-0.1,0-0.1,0c-50.8,1.2-97.3,13.2-128.3,33.4c-15.6,10.2-26.9,20.3-35.6,31.8c-16.1,21.4-26.6,48.7-29.3,76.7   c-2.3,23.2-2.5,46.8-0.8,71.9c-61.8,5.4-104.8,31.7-137.3,83.3c-21.5,34.1-29,76.8-22.8,130.4C108.8,791.9,108.8,792.2,108.8,792.5   z M395,849.2c-13.1,21.4-37.4,35.5-63.6,36.9c-27.3,1.4-54.6-11.6-69.5-33c-15.3-22-16.8-52.9-3.6-75.1   c11.7-19.6,37.6-32,67.7-32.3c0.3,0,0.7,0,1,0c30.3,0,56.5,12.1,68.7,31.7C408.6,798.5,408.4,827.3,395,849.2z M683.6,874.9   c-28.8,20.3-70.1,20.7-98.2,0.8c-28.4-20.1-40.8-60.5-28.4-92.1c8.9-22.4,35.4-47.7,81.2-45c28.1,1.6,64.4,16.6,74.2,53.3   c1.7,6.4,2.5,12.9,2.6,19.4c0,0.1,0,0.2,0,0.2c0,0.1,0,0.1,0,0.2C715.1,836.6,703.5,860.8,683.6,874.9z M799.1,632.9   c1.9,2,3.7,4.1,5.7,6.2c12,13.5,19.9,31,25,49.5c-0.9,0-1.9,0-2.8,0c-13.2-0.2-24.8-4-32.7-10.6c-8.6-7.3-12.8-18.8-10.2-28.1   C786,643.3,791.5,637.1,799.1,632.9z M491.3,379.4c58.2,3.2,106.6,19.9,129.5,44.7c14.3,15.4,22.6,34.3,28,63.2   c4.6,24.8,6.6,54.7,5.9,84.8c-50.1,0.7-114.9,1.5-177.8,2.3c-1.3,0-2.5,0-3.8,0c-0.3-25.5-0.6-51.2-0.8-76.2   c-0.3-39.1-0.7-79.4-1.5-119.3C477.5,378.9,484.4,379.1,491.3,379.4z M284.6,507.4c2.5-25.3,11.9-49.9,26.4-69.2   c7.6-10.1,17.7-19.1,31.8-28.3c27.2-17.8,67.9-28.6,113-30.7c0.8,39.7,1.2,80,1.5,119.1c0.2,25,0.4,50.8,0.8,76.3   c-59.9,0.7-120,1.5-166.1,2.2c-2.7,0-5.4,0.1-8.1,0.2C282.2,552.6,282.4,529.8,284.6,507.4z M144.2,669.2   c16.8-26.6,36.3-45.6,59.6-58c24-12.8,52.8-19.1,88.2-19.4c50.9-0.8,119.1-1.6,184.9-2.4c65.9-0.8,134-1.6,184.9-2.4   c42.8,0,71.6,4,93.1,13.1c12.9,5.4,23.1,12.6,33.2,21.9c-9.3,6-15.9,14.4-18.5,23.9c-4.2,15,1.8,32.5,14.9,43.6   c13.5,11.4,30.4,14,42.1,14.2c0.5,0,1,0,1.5,0c1.6,0,3.3,0,5-0.1c6.7,34.6,5.3,70.3,3.8,89.4c-0.4,4.9-4.4,8.6-9.2,8.7   c-24.8,0.6-68.6,1.6-98.1,2.1c-0.5-5.3-1.4-10.6-2.7-15.8c-9.8-36.6-44.2-61.9-87.8-64.4c-20.1-1.2-40.2,2.9-56.7,11.5   c-18.4,9.6-32.1,24.5-39.4,42.9c-3.5,8.8-5.4,18.3-5.8,28c-17.1,0.1-34.3,0.3-51.4,0.4c-22,0.2-43.9,0.4-65.8,0.6   c-0.8-13.3-4.7-26.3-11.6-37.5c-15-24.3-46.6-39.1-82.6-38.8c-35.3,0.3-66.1,15.5-80.5,39.6c-7,11.8-10.7,25.3-11.2,39   c-35.5,0.6-68.1,1.3-99.6,2.1c-4.5,0.1-8.4-3.1-9.1-7.6c-0.3-1.8-0.6-3.7-0.8-5.5c1.4-0.1,2.7-0.3,4-0.5c12.2-2.2,22.3-9,27-18.3   c4-7.9,4-16.7,4-23.8c0-8-0.1-15.9-0.1-23.9l0-1c0-10.7-0.1-25.4-8.9-36.6c-3.7-4.6-8.5-8.2-14.4-10.6   C138.7,678.6,141.3,673.8,144.2,669.2z M130.7,697.6c2.9,1.2,5.9,3.1,8.2,6c5.2,6.5,5.7,16.2,5.7,27.3l0,1c0,8,0,15.9,0.1,23.9   c0,6,0,12.3-2.4,16.9c-2.6,5.1-8.7,9-16.3,10.4c-1,0.2-2.1,0.3-3.1,0.4C119.8,750.3,122.4,721.9,130.7,697.6z M283,183.1   c-0.8-42.5,5-70.5,17.1-83.1c11.2-11.7,32.4-11.8,46.4-11.9c1.2,0,2.3,0,3.4,0c14.5-0.2,32.1-0.3,49.2-0.5l19.2-0.2   c4.1-0.1,7.5,3.3,7.6,7.4s-3.3,7.5-7.4,7.6l-19.2,0.2c-17,0.2-34.7,0.3-49.1,0.5c-1.1,0-2.2,0-3.5,0c-10.8,0.1-28.8,0.2-35.6,7.2   c-8.9,9.3-13.6,35.7-12.9,72.5c0.1,2.9,0.1,5.8,0.1,8.7c0.2,24.2,0.4,49.1,17.3,60.9c10.9,7.5,23.8,7.3,38.7,7   c2.2,0,4.3-0.1,6.5-0.1c13.4-0.1,21.9-0.2,34.1-0.3c0,0,0,0,0,0c4.1,0,7.5,3.3,7.5,7.5c0,4.1-3.3,7.5-7.5,7.5   c-12.1,0.1-20.7,0.1-34,0.3c-2.1,0-4.2,0.1-6.4,0.1c-2.9,0.1-5.8,0.1-8.7,0.1c-13.3,0-26.7-1.3-38.9-9.8   c-23.4-16.2-23.6-46.5-23.8-73.1C283.1,188.7,283,185.9,283,183.1z M529.1,101.5C529.2,101.5,529.2,101.5,529.1,101.5   c23.8-0.2,39.1-0.3,51-0.4l12.6-0.1c15.9-0.1,25.9,3,30.5,9.5c4.1,5.7,4.6,14.3,4.9,24.8c0.4,15.3,0.6,28.4,0.8,40   c0.1,9.9,0.3,18.9,0.5,27.9c0,0.1,0,0.1,0,0.2c0,0,0,0.1,0,0.1c0.1,4.5,0.3,9,0.4,13.7c0.6,13.9-2.1,24-8,31   c-4.1,4.8-10.2,9.6-34.7,9.8c-26.9,0.2-57.9,0.4-82.9,0.5c-2.9,0-5.6,1.7-6.8,4.4c-6,13-10.3,23.5-14.5,33.7   c-2.1,5.1-4.1,10-6.3,15c-1.7-4.1-3.5-8.3-5.5-13.1c-1.6-3.8-6-5.7-9.8-4.1c-3.8,1.6-5.7,6-4.1,9.8c2.2,5.4,4.2,10.1,6.2,14.6   c1.9,4.5,3.9,9.1,6.1,14.4c1.1,2.8,3.8,4.6,6.8,4.7c0.1,0,0.1,0,0.2,0c2.9,0,5.6-1.7,6.8-4.3c5.3-11.3,9.3-21,13.6-31.3   c3.7-8.9,7.5-18,12.3-28.8c24.1-0.1,52.9-0.3,78.2-0.5c16.1-0.2,34.3-1.5,45.9-15.1c8.5-10,12.3-23.5,11.6-41.4   c-0.1-2.1-0.2-4.2-0.2-6.2l25.6-1c2-0.1,3.9-1,5.3-2.5c1.4-1.5,2-3.5,1.9-5.5c-0.7-9.7-1.1-19.7-1.5-29.3   c-0.4-9.7-0.9-19.7-1.6-29.7c-0.3-4-3.7-7.1-7.7-7c-5,0.2-10.2,0.3-15.4,0.5c-2.7,0.1-5.3,0.2-8,0.2c0-0.4,0-0.8,0-1.2   c-0.3-10.3-0.6-23.2-7.7-33.1c-7.7-10.8-21.7-16-42.9-15.8L580,86.1c-11.9,0.1-27.1,0.2-50.9,0.4c-4.1,0-7.5,3.4-7.4,7.6   C521.7,98.2,525,101.5,529.1,101.5z M651.7,150.9c2.7-0.1,5.5-0.2,8.2-0.2c0.4,7.4,0.8,14.8,1.1,22.1c0.3,7.2,0.6,14.6,1.1,21.9   l-17.7,0.7c-0.1-6.5-0.2-13.1-0.3-20.2c-0.1-7.3-0.2-15.3-0.4-24C646.2,151.1,648.9,151,651.7,150.9z M393,193.4   c2.6,5,7.7,8,13.3,7.9c5.9-0.1,12.1,0,18.1,0.1c7.1,0.1,14.4,0.2,21.5,0c-5.1,12.3-10.5,26.4-16.1,41.1c-4.5,11.8-9.1,24-14.1,36.6   c-2.7,6.7-0.2,14.1,5.9,18c2.5,1.5,5.2,2.3,7.9,2.3c4,0,7.9-1.7,10.9-4.9c38.6-42.3,65.5-73.7,107.7-124c3.8-4.5,4.5-10.5,2-15.8   c-2.5-5.3-7.7-8.5-13.5-8.4c-6.4,0.1-11.8,0.2-16.5,0.3c-11.3,0.3-19.9,0.5-32.8-0.1c1.3-8.8,4.7-28.8,13.2-74.4   c1.3-7-2.4-13.7-8.9-16.4c-6.6-2.7-13.9-0.4-17.9,5.5c-20.8,31.1-58.8,87.5-79.6,116.7C390.9,182.5,390.4,188.4,393,193.4z    M485.6,70.5c-4,21.6-7.3,39.4-9.6,52.9c-1.5,8.8-2.7,15.7-3.4,20.5c-1.3,8.8-1.7,11.4,0.6,14.4c1.3,1.7,3.4,2.8,5.5,2.9   c18.1,1,28,0.8,41.8,0.4c4.6-0.1,9.8-0.2,15.9-0.3C494.7,210.8,468,242,430.1,283.6c4.9-12.3,9.4-24.2,13.8-35.7   c7.3-19.2,14.2-37.3,20.5-51.4c1.1-2.4,0.8-5.2-0.7-7.4c-1.4-2-3.7-3.2-6.1-3.2c-0.2,0-0.4,0-0.5,0c-10.1,0.7-21.5,0.6-32.4,0.5   c-5.9-0.1-12.1-0.1-18-0.1C427.3,157.1,464.6,101.7,485.6,70.5z M468,794.6c-4.1,0-7.4-3.2-7.5-7.3c-1.1-49-2.2-125.5-2-177.4   c0-4.1,3.4-7.5,7.5-7.5c0,0,0,0,0,0c4.1,0,7.5,3.4,7.5,7.5c-0.2,51.8,0.9,128.1,2,177c0.1,4.1-3.2,7.6-7.3,7.7   C468.1,794.6,468,794.6,468,794.6z"/></g><g class="st0" id="flat"><g class="st2"><path class="st11" d="M662.9,579.4c-102,1.5-268.3,3.3-370.3,4.8c-73.3,0.6-119.9,26.6-154.2,81c-29.8,47.3-25.3,104.7-19.8,139.9    c1.3,8.2,8.4,14.2,16.7,14c35.4-0.9,71.1-1.6,107-2.2l481.3-5.3c29.6-0.5,80.4-1.7,105.6-2.2c8.7-0.2,15.8-6.9,16.5-15.6    c4.7-57.7-2-123.5-34.1-159.6C779,597.6,753.8,579.4,662.9,579.4z"/><path class="st7" d="M332.4,893.9c27.9-1.4,55.2-16.6,69.7-40.5c14.6-23.9,15.4-55.9,0.6-79.7c-29.2-47.2-121.9-47.2-150.4,0.7    c-15,25.2-12.9,59.2,3.9,83.3C273.1,881.7,303.1,895.4,332.4,893.9z"/><path class="st7" d="M551,781c-14,35.3,0,79.1,31,101.1c31,21.9,75.9,21.1,106.9-0.8c28.3-20,40.8-57.6,31.8-91.1    C701,716,579,710.1,551,781z"/><path class="st6" d="M152.1,730.3c0-11.2-0.4-23.2-7.3-32c-4.6-5.8-11.4-9.1-18.7-10.5c-9.9,10.8-16.1,74.5-9.9,102.8    c3.8,0.1,7.5-0.1,11.2-0.7c8.8-1.6,17.6-6.3,21.7-14.3c3.2-6.2,3.2-13.4,3.2-20.4C152.2,746.9,152.2,738.6,152.1,730.3z"/><path class="st6" d="M343.5,843.9c11.5-5.5,18.9-18.3,18.1-31c-0.5-7.9-4.2-15.7-10.4-20.8c-16.8-13.9-43.2-9.8-51.4,11.5    c-4.6,11.9-1.2,26.3,8.2,34.9C317.4,847.1,332.1,849.3,343.5,843.9z"/><path class="st6" d="M612.7,837.6c7.1,6.2,16.9,9.2,26.3,8c13.7-1.8,25.7-13.1,28.2-26.7c5.2-28.6-27.1-54-52.2-36.3    c-9.5,6.7-14.9,18.5-14.3,30.1C601.2,822.3,605.6,831.4,612.7,837.6z"/><path class="st9" d="M457.6,193.4c-10.2,22.8-21.4,54.6-34.8,88.6c-3,7.5,6.7,13.6,12.1,7.6c38.6-42.3,65.1-73.2,107.5-123.8    c4-4.8,0.6-12-5.7-12c-24.1,0.3-33.6,1.2-57.6-0.1c-1.2-0.1,7.6-48.2,14.1-82.9c1.5-7.8-8.8-12-13.2-5.4    c-22.7,33.8-59.3,88.2-79.8,116.9c-3.5,4.9,0.1,11.6,6,11.5C423.3,193.6,441.5,194.5,457.6,193.4z"/><path class="st9" d="M802.6,624.4c-16.4,8.7-22.2,15.4-24.5,23.6c-3.6,12.9,2.3,27.3,12.6,35.9c10.2,8.6,24,12.2,37.4,12.4    c2.4,0,4.8,0,11.9-2.2c-5.5-23.4-14.6-44.4-28.4-59.9C808.5,630.8,805.6,627.5,802.6,624.4z"/><path class="st7" d="M283.1,191.6c0.2,26.7,0.4,56.9,23.8,73.1c12.2,8.5,25.6,9.8,38.9,9.8c2.9,0,5.8-0.1,8.7-0.1    c2.1,0,4.2-0.1,6.4-0.1c13.4-0.1,21.9-0.2,34-0.3c4.1,0,7.5-3.4,7.5-7.5c0-4.1-3.4-7.5-7.5-7.5c0,0,0,0,0,0    c-12.2,0.1-20.7,0.1-34.1,0.3c-2.2,0-4.4,0.1-6.5,0.1c-15,0.3-27.9,0.6-38.7-7c-17-11.8-17.2-36.8-17.3-60.9c0-2.9,0-5.8-0.1-8.7    c-0.7-36.8,4-63.2,12.9-72.5c6.8-7.1,24.8-7.2,35.6-7.2c1.2,0,2.4,0,3.5,0c14.5-0.2,32.1-0.3,49.1-0.5l19.2-0.2    c4.1,0,7.5-3.4,7.4-7.6s-3.4-7.5-7.6-7.4L399,87.6c-17.1,0.2-34.7,0.3-49.2,0.5c-1.1,0-2.2,0-3.4,0c-14,0.1-35.2,0.2-46.4,11.9    c-12.1,12.6-17.9,40.6-17.1,83.1C283,185.9,283.1,188.7,283.1,191.6z"/><path class="st7" d="M463.5,318.9c1.9,4.5,3.9,9.1,6.1,14.4c1.1,2.8,3.8,4.6,6.8,4.7c0.1,0,0.1,0,0.2,0c2.9,0,5.6-1.7,6.8-4.3    c5.3-11.3,9.3-21,13.6-31.3c3.7-8.9,7.5-18,12.3-28.8c24.1-0.1,52.9-0.3,78.2-0.5c16.1-0.2,34.3-1.5,45.9-15.1    c8.5-10,12.3-23.5,11.6-41.4c-0.1-2.1-0.2-4.2-0.2-6.2l25.6-1c2-0.1,3.9-1,5.3-2.5c1.4-1.5,2-3.5,1.9-5.5    c-0.7-9.7-1.1-19.7-1.5-29.3c-0.4-9.7-0.9-19.7-1.6-29.7c-0.3-4-3.7-7.1-7.7-7c-5,0.2-10.2,0.3-15.4,0.5c-2.7,0.1-5.3,0.2-8,0.2    c0-0.4,0-0.8,0-1.2c-0.3-10.3-0.6-23.2-7.7-33.1c-7.7-10.8-21.7-16-42.9-15.8L580,86.1c-11.9,0.1-27.1,0.2-50.9,0.4    c-4.1,0-7.5,3.4-7.4,7.6c0,4.1,3.4,7.4,7.5,7.4c0,0,0,0,0.1,0c23.8-0.2,39.1-0.3,50.9-0.4l12.6-0.1c15.9-0.1,25.9,3,30.5,9.5    c4.1,5.7,4.6,14.3,4.9,24.8c0.4,15.3,0.6,28.4,0.8,40c0.1,9.9,0.3,18.9,0.5,27.9c0,0.1,0,0.1,0,0.2c0,0,0,0.1,0,0.1    c0.1,4.5,0.3,9,0.4,13.7c0.6,13.9-2.1,24-8,31c-4.1,4.8-10.2,9.6-34.7,9.8c-26.9,0.2-57.9,0.4-82.9,0.5c-2.9,0-5.6,1.7-6.8,4.4    c-6,13-10.3,23.5-14.5,33.7c-2.1,5.1-4.1,10-6.3,15c-1.7-4.1-3.5-8.3-5.5-13.1c-1.6-3.8-6-5.7-9.8-4.1c-3.8,1.6-5.7,6-4.1,9.8    C459.5,309.7,461.5,314.4,463.5,318.9z M651.7,150.9c2.7-0.1,5.5-0.2,8.2-0.2c0.4,7.4,0.8,14.8,1.1,22.1    c0.3,7.2,0.6,14.6,1.1,21.9l-17.7,0.7c-0.1-6.5-0.2-13.1-0.3-20.2c-0.1-7.3-0.2-15.3-0.4-24C646.2,151.1,648.9,151,651.7,150.9z"/><path class="st7" d="M785.8,689.6c13.5,11.4,30.4,14,42.2,14.2c0.5,0,1,0,1.5,0c3.8,0,7.6-0.2,11.7-0.6c4.1-0.4,7.1-4.1,6.7-8.2    c-0.4-4.1-4.1-7.1-8.2-6.7c-4,0.4-7.8,0.6-11.4,0.6c-13.2-0.2-24.8-4-32.7-10.6c-8.6-7.3-12.8-18.9-10.2-28.2    c2.2-7.9,9.4-15.1,19.3-19.1c3.8-1.6,5.7-6,4.1-9.8c-1.6-3.8-6-5.7-9.8-4.1c-14.3,5.9-24.5,16.4-28,28.9    C766.7,660.9,772.7,678.5,785.8,689.6z"/><path class="st7" d="M525,624.1l-26.1,1.3c-4.1,0.2-7.3,3.7-7.1,7.9c0.2,4,3.5,7.1,7.5,7.1c0.1,0,0.3,0,0.4,0l26.1-1.3    c4.1-0.2,7.3-3.7,7.1-7.9C532.7,627.1,529.2,623.9,525,624.1z"/><path class="st7" d="M361,626.6l-30.4,2.1c-4.1,0.3-7.3,3.9-7,8c0.3,4,3.6,7,7.5,7c0.2,0,0.3,0,0.5,0l30.4-2.1    c4.1-0.3,7.3-3.9,7-8C368.7,629.4,365.1,626.3,361,626.6z"/><path class="st7" d="M116.5,798.8c0.8,0,1.5,0,2.3,0c3.7,0,7.2-0.3,10.4-0.9c12.2-2.2,22.3-9,27-18.3c4-7.9,4-16.7,4-23.8    c0-8.3-0.1-16.6-0.1-24.9c0-10.7-0.1-25.5-9-36.6c-5.4-6.8-13.4-11.4-23.2-13.2c-4.1-0.8-8,1.9-8.7,6c-0.8,4.1,1.9,8,6,8.7    c4.3,0.8,10.3,2.8,14.2,7.8c5.2,6.5,5.7,16.3,5.7,27.4c0,8.3,0,16.6,0.1,24.8c0,6,0,12.3-2.4,17c-2.6,5.2-8.7,9-16.3,10.4    c-2.9,0.5-6.1,0.7-9.6,0.6c-4.2-0.1-7.6,3.1-7.7,7.3C109.1,795.2,112.4,798.7,116.5,798.8z"/><path class="st7" d="M468.3,791.5c0,0,0.1,0,0.1,0c4.1-0.1,7.5-3.5,7.4-7.6c-0.4-25.7-0.9-78.2-1.6-138.9l-0.3-30.3    c0-4.1-3.4-7.4-7.5-7.4c0,0-0.1,0-0.1,0c-4.1,0-7.5,3.4-7.4,7.6l0.3,30.3c0.6,60.8,1.2,113.2,1.6,139    C460.9,788.2,464.2,791.5,468.3,791.5z"/><path class="st7" d="M277.1,591.2c0.2,0,0.4,0,0.6,0c4.1-0.3,7.2-4,6.8-8.1c-2.3-27-2.2-52.1,0.2-76.7    c2.5-25.3,11.9-49.9,26.4-69.2c7.6-10.1,17.7-19.1,31.8-28.3c27.2-17.8,67.9-28.6,113-30.7c0.8,40.4,1.7,125.1,2.6,203.8    c0,4.1,3.4,7.4,7.5,7.4c0,0,0.1,0,0.1,0c4.1,0,7.5-3.4,7.4-7.6c-0.9-78.8-1.8-163.6-2.6-204c6.8,0,13.6,0.2,20.5,0.5    c58.2,3.2,106.6,19.9,129.5,44.7c14.3,15.4,22.6,34.3,28,63.2c4.9,26.8,6.9,59.4,5.6,91.9c-0.2,4.1,3.1,7.6,7.2,7.8    c4.2,0.2,7.6-3.1,7.8-7.2c1.3-33.6-0.7-67.4-5.9-95.2c-3.9-21.2-11-48.4-31.7-70.6c-25.5-27.5-77.8-46-139.7-49.4    c-9.8-0.5-19.5-0.7-29.1-0.5c0,0,0,0-0.1,0c0,0-0.1,0-0.1,0c-50.8,1.2-97.3,13.2-128.3,33.4c-15.6,10.2-26.9,20.3-35.6,31.8    c-16.1,21.4-26.6,48.7-29.3,76.7c-2.5,25.5-2.6,51.5-0.2,79.4C270,588.2,273.3,591.2,277.1,591.2z"/></g></g><g class="st0" id="colored_x5F_line"><g class="st2"><path class="st9" d="M297,816.3c-0.2-4.4,0.4-8.9,2-13.1c8.4-21.9,35.6-26.1,53-11.8c6.3,5.2,10.1,13.2,10.7,21.4    c0.1,0.9,0.1,1.8,0,2.8L598,813c0,0,0-0.1,0-0.1c-0.7-12.5,5.2-25.2,15.4-32.4c24.9-17.5,56.4,4.2,56.9,31.7l53.3-0.6    c29.6-0.5,80.4-1.7,105.6-2.2c8.7-0.2,15.8-6.9,16.5-15.6c4.7-57.7-2-123.5-34.1-159.6c-32.6-36.5-57.8-54.8-148.7-54.8    c-102,1.5-268.3,3.3-370.3,4.8c-73.3,0.6-119.9,26.6-154.2,81c-29.8,47.3-25.3,104.7-19.8,139.9c1.3,8.2,8.4,14.2,16.7,14    c35.4-0.9,71.1-1.6,107-2.2L297,816.3z"/><path class="st9" d="M406.2,193.8c17.1-0.2,35.2,0.7,51.3-0.4c-10.2,22.8-21.4,54.6-34.8,88.6c-3,7.5,6.7,13.6,12.1,7.6    c38.6-42.3,65.1-73.2,107.5-123.8c4-4.8,0.6-12-5.7-12c-24.1,0.3-33.6,1.2-57.6-0.1c-1.2-0.1,7.6-48.2,14.1-82.9    c1.5-7.8-8.8-12-13.2-5.4c-22.7,33.8-59.3,88.2-79.8,116.9C396.7,187.2,400.3,193.9,406.2,193.8z"/><path class="st5" d="M283.1,191.6c0.2,26.7,0.4,56.9,23.8,73.1c12.2,8.5,25.6,9.8,38.9,9.8c2.9,0,5.8-0.1,8.7-0.1    c2.1,0,4.2-0.1,6.4-0.1c13.4-0.1,21.9-0.2,34-0.3c4.1,0,7.5-3.4,7.5-7.5c0-4.1-3.4-7.5-7.5-7.5c0,0,0,0,0,0    c-12.2,0.1-20.7,0.1-34.1,0.3c-2.2,0-4.4,0.1-6.5,0.1c-15,0.3-27.9,0.6-38.7-7c-17-11.8-17.2-36.8-17.3-60.9c0-2.9,0-5.8-0.1-8.7    c-0.7-36.8,4-63.2,12.9-72.5c6.8-7.1,24.8-7.2,35.6-7.2c1.2,0,2.4,0,3.5,0c14.5-0.2,32.1-0.3,49.1-0.5l19.2-0.2    c4.1,0,7.5-3.4,7.4-7.6s-3.4-7.5-7.6-7.4L399,87.6c-17.1,0.2-34.7,0.3-49.2,0.5c-1.1,0-2.2,0-3.4,0c-14,0.1-35.2,0.2-46.4,11.9    c-12.1,12.6-17.9,40.6-17.1,83.1C283,185.9,283.1,188.7,283.1,191.6z"/><path class="st5" d="M463.5,318.9c1.9,4.5,3.9,9.1,6.1,14.4c1.1,2.8,3.8,4.6,6.8,4.7c0.1,0,0.1,0,0.2,0c2.9,0,5.6-1.7,6.8-4.3    c5.3-11.3,9.3-21,13.6-31.3c3.7-8.9,7.5-18,12.3-28.8c24.1-0.1,52.9-0.3,78.2-0.5c16.1-0.2,34.3-1.5,45.9-15.1    c8.5-10,12.3-23.5,11.6-41.4c-0.1-2.1-0.2-4.2-0.2-6.2l25.6-1c2-0.1,3.9-1,5.3-2.5c1.4-1.5,2-3.5,1.9-5.5    c-0.7-9.7-1.1-19.7-1.5-29.3c-0.4-9.7-0.9-19.7-1.6-29.7c-0.3-4-3.7-7.1-7.7-7c-5,0.2-10.2,0.3-15.4,0.5c-2.7,0.1-5.3,0.2-8,0.2    c0-0.4,0-0.8,0-1.2c-0.3-10.3-0.6-23.2-7.7-33.1c-7.7-10.8-21.7-16-42.9-15.8L580,86.1c-11.9,0.1-27.1,0.2-50.9,0.4    c-4.1,0-7.5,3.4-7.4,7.6c0,4.1,3.4,7.4,7.5,7.4c0,0,0,0,0.1,0c23.8-0.2,39.1-0.3,50.9-0.4l12.6-0.1c15.9-0.1,25.9,3,30.5,9.5    c4.1,5.7,4.6,14.3,4.9,24.8c0.4,15.3,0.6,28.4,0.8,40c0.1,9.9,0.3,18.9,0.5,27.9c0,0.1,0,0.1,0,0.2c0,0,0,0.1,0,0.1    c0.1,4.5,0.3,9,0.4,13.7c0.6,13.9-2.1,24-8,31c-4.1,4.8-10.2,9.6-34.7,9.8c-26.9,0.2-57.9,0.4-82.9,0.5c-2.9,0-5.6,1.7-6.8,4.4    c-6,13-10.3,23.5-14.5,33.7c-2.1,5.1-4.1,10-6.3,15c-1.7-4.1-3.5-8.3-5.5-13.1c-1.6-3.8-6-5.7-9.8-4.1c-3.8,1.6-5.7,6-4.1,9.8    C459.5,309.7,461.5,314.4,463.5,318.9z M651.7,150.9c2.7-0.1,5.5-0.2,8.2-0.2c0.4,7.4,0.8,14.8,1.1,22.1    c0.3,7.2,0.6,14.6,1.1,21.9l-17.7,0.7c-0.1-6.5-0.2-13.1-0.3-20.2c-0.1-7.3-0.2-15.3-0.4-24C646.2,151.1,648.9,151,651.7,150.9z"/><path class="st5" d="M332.4,893.9c27.9-1.4,55.2-16.6,69.7-40.5c14.6-23.9,15.4-55.9,0.6-79.7c-29.2-47.2-121.9-47.2-150.4,0.7    c-15,25.2-12.9,59.2,3.9,83.3C273.1,881.7,303.1,895.4,332.4,893.9z M299.9,803.6c8.2-21.3,34.5-25.3,51.4-11.5    c6.1,5.1,9.8,12.8,10.4,20.8c0.9,12.7-6.6,25.5-18.1,31c-11.5,5.5-26.1,3.3-35.5-5.4C298.7,829.9,295.4,815.4,299.9,803.6z"/><path class="st5" d="M551,781c-14,35.3,0,79.1,31,101.1c31,21.9,75.9,21.1,106.9-0.8c28.3-20,40.8-57.6,31.8-91.1    C701,716,579,710.1,551,781z M667.2,819c-2.5,13.6-14.5,24.9-28.2,26.7c-9.4,1.2-19.2-1.9-26.3-8c-7.1-6.2-11.5-15.4-12-24.8    c-0.6-11.6,4.8-23.4,14.3-30.1C640,765,672.4,790.4,667.2,819z"/><path class="st5" d="M785.8,689.6c13.5,11.4,30.4,14,42.2,14.2c0.5,0,1,0,1.5,0c3.8,0,7.6-0.2,11.7-0.6c4.1-0.4,7.1-4.1,6.7-8.2    c-0.4-4.1-4.1-7.1-8.2-6.7c-4,0.4-7.8,0.6-11.4,0.6c-13.2-0.2-24.8-4-32.7-10.6c-8.6-7.3-12.8-18.9-10.2-28.2    c2.2-7.9,9.4-15.1,19.3-19.1c3.8-1.6,5.7-6,4.1-9.8c-1.6-3.8-6-5.7-9.8-4.1c-14.3,5.9-24.5,16.4-28,28.9    C766.7,660.9,772.7,678.5,785.8,689.6z"/><path class="st5" d="M499.6,640.4l26.1-1.3c4.1-0.2,7.3-3.7,7.1-7.9c-0.2-4.1-3.7-7.3-7.9-7.1l-26.1,1.3c-4.1,0.2-7.3,3.7-7.1,7.9    c0.2,4,3.5,7.1,7.5,7.1C499.4,640.4,499.5,640.4,499.6,640.4z"/><path class="st5" d="M361,626.6l-30.4,2.1c-4.1,0.3-7.3,3.9-7,8c0.3,4,3.6,7,7.5,7c0.2,0,0.3,0,0.5,0l30.4-2.1    c4.1-0.3,7.3-3.9,7-8C368.7,629.4,365.1,626.3,361,626.6z"/><path class="st5" d="M116.5,798.8c0.8,0,1.5,0,2.3,0c3.7,0,7.2-0.3,10.4-0.9c12.2-2.2,22.3-9,27-18.3c4-7.9,4-16.7,4-23.8    c0-8.3-0.1-16.6-0.1-24.9c0-10.7-0.1-25.5-9-36.6c-5.4-6.8-13.4-11.4-23.2-13.2c-4.1-0.8-8,1.9-8.7,6c-0.8,4.1,1.9,8,6,8.7    c4.3,0.8,10.3,2.8,14.2,7.8c5.2,6.5,5.7,16.3,5.7,27.4c0,8.3,0,16.6,0.1,24.8c0,6,0,12.3-2.4,17c-2.6,5.2-8.7,9-16.3,10.4    c-2.9,0.5-6.1,0.7-9.6,0.6c-4.2-0.1-7.6,3.1-7.7,7.3C109.1,795.2,112.4,798.7,116.5,798.8z"/><path class="st5" d="M468.3,791.5c0,0,0.1,0,0.1,0c4.1-0.1,7.5-3.5,7.4-7.6c-0.4-25.7-0.9-78.2-1.6-138.9l-0.3-30.3    c0-4.1-3.4-7.4-7.5-7.4c0,0-0.1,0-0.1,0c-4.1,0-7.5,3.4-7.4,7.6l0.3,30.3c0.6,60.8,1.2,113.2,1.6,139    C460.9,788.2,464.2,791.5,468.3,791.5z"/><path class="st5" d="M277.1,591.2c0.2,0,0.4,0,0.6,0c4.1-0.3,7.2-4,6.8-8.1c-2.3-27-2.2-52.1,0.2-76.7    c2.5-25.3,11.9-49.9,26.4-69.2c7.6-10.1,17.7-19.1,31.8-28.3c27.2-17.8,67.9-28.6,113-30.7c0.8,40.4,1.7,125.1,2.6,203.8    c0,4.1,3.4,7.4,7.5,7.4c0,0,0.1,0,0.1,0c4.1,0,7.5-3.4,7.4-7.6c-0.9-78.8-1.8-163.6-2.6-204c6.8,0,13.6,0.2,20.5,0.5    c58.2,3.2,106.6,19.9,129.5,44.7c14.3,15.4,22.6,34.3,28,63.2c4.9,26.8,6.9,59.4,5.6,91.9c-0.2,4.1,3.1,7.6,7.2,7.8    c4.2,0.2,7.6-3.1,7.8-7.2c1.3-33.6-0.7-67.4-5.9-95.2c-3.9-21.2-11-48.4-31.7-70.6c-25.5-27.5-77.8-46-139.7-49.4    c-9.8-0.5-19.5-0.7-29.1-0.5c0,0,0,0-0.1,0c0,0-0.1,0-0.1,0c-50.8,1.2-97.3,13.2-128.3,33.4c-15.6,10.2-26.9,20.3-35.6,31.8    c-16.1,21.4-26.6,48.7-29.3,76.7c-2.5,25.5-2.6,51.5-0.2,79.4C270,588.2,273.3,591.2,277.1,591.2z"/></g></g></svg>